<?xml version="1.0" encoding="UTF-8"?>
<svg id="Admissions" xmlns="http://www.w3.org/2000/svg" version="1.1" viewBox="0 0 332.13 36.07">
  <!-- Generator: Adobe Illustrator 29.5.1, SVG Export Plug-In . SVG Version: 2.1.0 Build 141)  -->
  <defs>
    <style>
      .st0 {
        fill: #fff;
      }

      .st1 {
        fill: #ffcf01;
      }
    </style>
  </defs>
  <g>
    <path class="st1" d="M19.32,22.73l-7.88-10.76v7.83h3.13v7.74H.08v-7.74h2.94V7.76H.08V.03h11.38l7.85,10.84L27.17.03h11.38v7.73h-2.94v12.04h2.94v7.74h-14.49v-7.74h3.13v-7.83l-7.88,10.76Z"/>
    <path class="st0" d="M1.86,35.49H0v-.24c.15-.01.25-.03.31-.06.06-.02.1-.07.13-.14.02-.07.03-.18.04-.34,0-.13.01-.37.01-.72v-1.47c0-.4-.01-.66-.03-.76-.02-.09-.06-.15-.12-.18-.06-.03-.17-.05-.33-.06v-.23h1.92c.34,0,.63.02.85.05.22.03.44.11.64.23.26.16.48.39.66.7.18.31.27.67.27,1.08,0,.53-.15.99-.44,1.37-.18.23-.39.4-.63.51-.24.11-.47.18-.68.2-.21.03-.46.04-.74.05ZM1.64,31.67h-.37v2.72c0,.22,0,.37.03.46.02.09.06.16.12.19.06.04.17.05.32.05.38,0,.71-.08.97-.23.27-.16.47-.37.6-.64.13-.27.2-.57.2-.91,0-.26-.04-.48-.12-.67-.08-.19-.21-.37-.37-.55-.12-.13-.26-.23-.41-.29-.15-.06-.3-.1-.44-.11-.14-.01-.32-.02-.53-.03ZM35.82,35.26c-.23-.03-.39-.05-.48-.08-.08-.03-.14-.09-.17-.19-.03-.09-.04-.26-.04-.5v-2.18l1.66,2.04c.11.13.22.27.33.42l.24.29.37.47h.25l.06-3.24c0-.24.02-.42.04-.52.02-.1.06-.17.13-.21.07-.03.18-.05.34-.06v-.23h-1.65v.23c.24,0,.41.03.49.06.09.03.14.08.16.17.02.09.04.25.04.5v1.88l-1.17-1.45c-.29-.36-.49-.61-.6-.76-.11-.14-.26-.35-.45-.62h-1.26v.23c.14.01.25.04.32.07.07.03.17.1.28.21,0,.43-.02,1.04-.04,1.82-.02.79-.03,1.25-.04,1.38,0,.07-.01.13-.03.16-.02.04-.04.06-.06.07-.03.01-.06.02-.1.03v.23h1.37v-.23ZM30.73,33.61v.54c0,.37.01.62.03.75.01.13.05.22.12.27.07.05.19.08.36.08v.24h-1.75v-.24c.16,0,.27-.03.33-.06.07-.03.11-.08.13-.15.02-.07.03-.19.04-.35,0-.11,0-.29,0-.54v-1.52c0-.43,0-.7-.02-.81-.01-.11-.05-.19-.12-.22-.06-.04-.19-.06-.37-.08v-.23h1.9c.48,0,.83.1,1.04.3.21.2.32.46.32.78,0,.14-.03.29-.09.44-.06.15-.15.28-.28.4-.12.12-.28.21-.46.27l.74,1.29c.09.17.17.3.24.38.07.09.14.15.22.19.07.04.17.07.29.08v.14c-.12,0-.21.01-.27.01-.26,0-.48-.03-.65-.1-.17-.06-.32-.17-.44-.3-.12-.14-.24-.33-.36-.58l-.23-.5c-.08-.18-.15-.3-.21-.36-.06-.07-.12-.1-.18-.12-.06-.01-.17-.02-.34-.02ZM30.73,31.69v1.55c.14.03.27.04.39.04.15,0,.29-.04.42-.1.13-.07.23-.16.31-.27.08-.11.12-.22.13-.33.01-.27-.06-.48-.21-.65-.16-.17-.41-.25-.78-.25-.1,0-.18,0-.26.02ZM28.7,33.46c0,.46-.09.86-.29,1.2-.19.33-.44.59-.76.76-.32.17-.67.25-1.04.25-.41,0-.77-.09-1.1-.28-.33-.18-.59-.44-.78-.78-.19-.33-.29-.72-.29-1.16,0-.39.08-.75.25-1.08.17-.33.41-.6.73-.8.32-.2.69-.3,1.12-.3s.79.09,1.12.28c.33.18.59.44.77.77.18.33.27.71.27,1.13ZM26.61,35.27c.14,0,.29-.05.43-.13.15-.08.28-.21.4-.39.13-.2.22-.4.27-.59.05-.2.07-.42.07-.67,0-.65-.16-1.15-.47-1.49-.23-.23-.48-.35-.75-.34-.27,0-.52.12-.74.37-.29.33-.43.78-.43,1.35,0,.29.03.55.08.77.06.22.16.43.3.64.12.18.26.3.41.38.15.08.29.11.43.11ZM19.84,31.29h2.16c.19,0,.37.01.51.03.15.02.28.07.4.14.13.08.23.18.31.32.07.14.11.29.11.45,0,.54-.36.88-1.06,1.02.19.02.36.04.5.08.14.03.26.09.38.18.28.2.41.47.41.84s-.14.67-.42.89c-.13.1-.27.16-.43.2-.15.03-.35.05-.59.05h-1.93v-.23c.11-.03.16-.15.16-.36,0-.2.01-.55.01-1.05v-1.25c0-.38,0-.63-.02-.75-.02-.12-.05-.21-.12-.25-.06-.04-.19-.06-.37-.08v-.23ZM21.16,31.66v1.41c.25,0,.47-.01.66-.05.19-.04.35-.11.47-.23.12-.12.19-.29.19-.52s-.09-.4-.27-.49c-.18-.09-.43-.13-.75-.13-.06,0-.16,0-.3.01ZM21.55,33.47h-.39v.98c0,.18,0,.32.02.4.02.09.06.15.14.2.07.05.2.07.37.07.14,0,.29-.03.44-.08.15-.06.28-.15.38-.28.11-.13.16-.29.16-.49,0-.22-.04-.39-.13-.51-.09-.12-.21-.19-.37-.23-.16-.04-.37-.06-.62-.06ZM16.43,33.53v.62c0,.37.01.62.03.75.01.13.05.23.12.27.07.05.19.08.36.09v.23h-1.75v-.23c.16-.01.27-.04.34-.07.06-.03.11-.08.13-.15.02-.07.04-.19.04-.35,0-.12,0-.3,0-.54v-1.52c0-.43,0-.71-.03-.82-.01-.11-.05-.19-.12-.23-.06-.04-.19-.06-.37-.07v-.23h1.9c.48,0,.83.1,1.04.29.21.2.32.46.32.78,0,.22-.07.42-.21.62-.14.19-.35.33-.62.42l.75,1.37c.09.17.17.3.24.38.07.09.14.15.22.19.08.04.17.07.29.08v.14c-.12,0-.21.01-.28.01-.26,0-.48-.03-.65-.1-.17-.06-.32-.17-.44-.31-.12-.14-.24-.34-.36-.58l-.23-.49c-.08-.18-.16-.31-.21-.39-.06-.08-.12-.12-.2-.15-.07-.02-.18-.03-.32-.04ZM16.43,31.65v1.51c.12.03.25.04.39.04.15,0,.3-.03.43-.1.13-.06.23-.15.31-.25.07-.1.12-.21.12-.32.01-.27-.06-.48-.21-.66-.16-.17-.42-.25-.78-.25-.1,0-.18,0-.25.03ZM14.16,35.49h-1.96v-.23c.18-.01.3-.04.38-.07.08-.03.12-.1.12-.2,0-.06-.01-.14-.04-.25l-.13-.43h-1.48l-.13.36c-.03.11-.05.19-.05.26,0,.13.05.22.15.26.1.04.24.06.42.07v.23h-1.72v-.23c.15,0,.27-.03.36-.06.09-.03.16-.08.21-.16.06-.07.11-.18.17-.33l1.13-3.11-.07-.1c.24-.08.41-.14.51-.19.1-.05.21-.12.32-.19.05.17.11.38.19.62l.93,2.84c.06.18.11.32.16.4.05.09.11.15.19.19.08.04.19.07.34.09v.23ZM12.41,33.86l-.59-1.74-.61,1.74h1.2ZM8.7,34.41h-.2c-.04.23-.12.4-.22.5-.1.1-.22.16-.35.18-.13.02-.33.03-.6.03s-.44-.03-.53-.1c-.09-.07-.14-.17-.14-.32v-1.18h.45c.19,0,.33.01.41.04.09.02.15.07.19.14.04.07.06.19.06.34h.2v-1.38h-.2c-.01.14-.04.24-.07.31-.04.07-.1.12-.18.15-.09.03-.22.04-.4.04h-.46v-1.47h.52c.26,0,.46.01.59.04.13.03.23.08.31.17.08.09.13.23.16.41h.19l-.02-.99h-2.99v.22c.17.02.29.04.35.06.06.03.1.09.13.18.02.11.03.36.03.76v1.47c0,.35,0,.59-.01.72,0,.16-.02.28-.04.34-.02.07-.07.11-.13.14-.06.03-.17.05-.33.06v.23h3.19c0-.26.03-.62.09-1.08Z"/>
  </g>
  <g>
    <path class="st0" d="M53.66,3.61c0-1.75.02-3.36,1.96-3.36,1.57,0,1.6,1.29,1.6,1.88h-.57c0-.72-.2-1.39-1.02-1.39-1.36,0-1.38,1.16-1.38,2.88s.02,2.88,1.38,2.88c.75,0,1.02-.66,1.03-1.5h.61c0,.47-.11,1.98-1.64,1.98-1.94,0-1.96-1.61-1.96-3.36Z"/>
    <path class="st0" d="M60.99.24c1.94,0,1.96,1.62,1.96,3.36s-.02,3.36-1.96,3.36-1.96-1.61-1.96-3.36.02-3.36,1.96-3.36ZM60.99,6.49c1.36,0,1.38-1.16,1.38-2.88s-.02-2.88-1.38-2.88-1.38,1.16-1.38,2.88.02,2.88,1.38,2.88Z"/>
    <path class="st0" d="M64.9,6.85V.37h.57v5.99h2.14v.48h-2.72Z"/>
    <path class="st0" d="M69.34,6.85V.37h.57v5.99h2.14v.48h-2.72Z"/>
    <path class="st0" d="M76.75.37v.48h-2.36v2.42h2.25v.48h-2.25v2.6h2.42v.48h-3V.37h2.93Z"/>
    <path class="st0" d="M81.66,3.95h-1.31v-.48h1.88v3.24c-.57.18-1.18.27-1.79.27-2.11,0-1.96-2.11-1.96-3.36s-.15-3.36,1.96-3.36c1.24,0,1.88.53,1.85,1.79h-.57c0-.85-.37-1.3-1.27-1.3-1.4,0-1.38,1.25-1.38,2.88s-.02,2.88,1.38,2.88c.49,0,.91-.07,1.21-.19v-2.35Z"/>
    <path class="st0" d="M87.27.37v.48h-2.36v2.42h2.25v.48h-2.25v2.6h2.42v.48h-3V.37h2.93Z"/>
    <path class="st0" d="M93.47.24c1.94,0,1.96,1.62,1.96,3.36s-.02,3.36-1.96,3.36-1.96-1.61-1.96-3.36.02-3.36,1.96-3.36ZM93.47,6.49c1.36,0,1.38-1.16,1.38-2.88s-.02-2.88-1.38-2.88-1.38,1.16-1.38,2.88.02,2.88,1.38,2.88Z"/>
    <path class="st0" d="M97.39.37h2.74v.48h-2.16v2.42h2.01v.48h-2.01v3.09h-.57V.37Z"/>
    <path class="st0" d="M60.5,10.22v1.09h-5.31v5.45h5.07v1.09h-5.07v5.85h5.45v1.09h-6.74v-14.58h6.6Z"/>
    <path class="st0" d="M62.91,24.79v-14.58h1.98l5.91,12.8.04-.04v-12.76h1.29v14.58h-1.96l-5.94-12.94-.04.04v12.9h-1.29Z"/>
    <path class="st0" d="M81.83,18.27h-2.95v-1.09h4.24v7.29c-1.29.4-2.64.61-4.02.61-4.74,0-4.4-4.74-4.4-7.57s-.34-7.57,4.4-7.57c2.79,0,4.22,1.19,4.16,4.02h-1.29c0-1.92-.83-2.93-2.87-2.93-3.15,0-3.11,2.81-3.11,6.48s-.04,6.48,3.11,6.48c1.11,0,2.04-.16,2.73-.42v-5.29Z"/>
    <path class="st0" d="M87.29,10.22v14.58h-1.29v-14.58h1.29Z"/>
    <path class="st0" d="M90.18,24.79v-14.58h1.98l5.91,12.8.04-.04v-12.76h1.29v14.58h-1.96l-5.94-12.94-.04.04v12.9h-1.29Z"/>
    <path class="st0" d="M108.89,10.22v1.09h-5.31v5.45h5.07v1.09h-5.07v5.85h5.45v1.09h-6.74v-14.58h6.6Z"/>
    <path class="st0" d="M117.88,10.22v1.09h-5.31v5.45h5.07v1.09h-5.07v5.85h5.45v1.09h-6.74v-14.58h6.6Z"/>
    <path class="st0" d="M121.49,17.73v7.07h-1.29v-14.58h4.02c2.81,0,3.51.93,3.51,3.49,0,1.82-.3,3.03-2.26,3.47v.04c2.04.42,2.16.67,2.16,5.87,0,.57.1,1.13.14,1.7h-1.23c-.12-.42-.18-2.85-.2-3.63-.02-.63.4-3.43-2.4-3.43h-2.44ZM121.49,16.64h2.1c1.94,0,2.85-.5,2.85-2.95,0-2-.79-2.38-2.3-2.38h-2.64v5.33Z"/>
    <path class="st0" d="M131.66,10.22v14.58h-1.29v-14.58h1.29Z"/>
    <path class="st0" d="M134.55,24.79v-14.58h1.98l5.91,12.8.04-.04v-12.76h1.29v14.58h-1.96l-5.94-12.94-.04.04v12.9h-1.29Z"/>
    <path class="st0" d="M153.47,18.27h-2.95v-1.09h4.24v7.29c-1.29.4-2.64.61-4.02.61-4.74,0-4.4-4.74-4.4-7.57s-.34-7.57,4.4-7.57c2.79,0,4.22,1.19,4.16,4.02h-1.29c0-1.92-.83-2.93-2.87-2.93-3.15,0-3.11,2.81-3.11,6.48s-.04,6.48,3.11,6.48c1.11,0,2.04-.16,2.72-.42v-5.29Z"/>
    <path class="st0" d="M170.15,23.34c-1.19,1.43-2.5,1.74-4.28,1.74-1.92,0-3.86-.97-3.86-4.1,0-2.26.97-2.93,2.66-4.2-.99-1.21-1.86-1.96-1.86-3.63,0-2.24,1.11-3.21,3.35-3.21,1.82,0,2.97.73,2.97,3.09,0,1.94-1.31,2.81-2.66,3.94l3.43,4.16c.34-1.09.53-3.39.53-4.5h1.21c0,1.11-.1,3.69-.85,5.61l2.1,2.56h-1.66l-1.09-1.45ZM165.45,17.65c-1.35.97-2.14,1.57-2.14,3.31,0,2.06,1.13,3.03,3.11,3.03,1.15,0,2.36-.61,2.91-1.66l-3.87-4.68ZM167.85,12.94c0-1.17-.48-1.92-1.78-1.92-1.17,0-1.96.65-1.96,1.86,0,1.45.71,2.16,1.59,3.21,1.11-.81,2.14-1.66,2.14-3.15Z"/>
    <path class="st0" d="M178.81,17.5c0-3.94.04-7.57,4.4-7.57,3.53,0,3.59,2.91,3.59,4.22h-1.29c0-1.62-.44-3.13-2.3-3.13-3.07,0-3.11,2.6-3.11,6.48s.04,6.48,3.11,6.48c1.68,0,2.3-1.49,2.32-3.37h1.37c0,1.05-.24,4.46-3.7,4.46-4.36,0-4.4-3.63-4.4-7.57Z"/>
    <path class="st0" d="M193.45,9.93c4.36,0,4.4,3.63,4.4,7.57s-.04,7.57-4.4,7.57-4.4-3.63-4.4-7.57.04-7.57,4.4-7.57ZM193.45,23.98c3.07,0,3.11-2.6,3.11-6.48s-.04-6.48-3.11-6.48-3.11,2.6-3.11,6.48.04,6.48,3.11,6.48Z"/>
    <path class="st0" d="M200.41,24.79v-14.58h2.2l4.3,13.16h.04l4.24-13.16h2.06v14.58h-1.29v-13.32h-.04l-4.28,13.32h-1.49l-4.4-13.32h-.04v13.32h-1.29Z"/>
    <path class="st0" d="M215.98,10.22h4c1.21,0,3.21.16,3.21,3.53,0,2.93-.95,4.26-3.45,4.26h-2.46v6.78h-1.29v-14.58ZM217.27,16.92h2.4c1.35,0,2.22-.65,2.22-2.93,0-2.48-1.07-2.69-2.24-2.69h-2.38v5.61Z"/>
    <path class="st0" d="M226.53,19.38c0,1.9,0,4.6,2.97,4.6s2.97-2.71,2.97-4.6v-9.16h1.29v10.11c0,3.75-1.98,4.74-4.26,4.74s-4.26-.99-4.26-4.74v-10.11h1.29v9.16Z"/>
    <path class="st0" d="M239.28,11.31h-3.55v-1.09h8.4v1.09h-3.55v13.49h-1.29v-13.49Z"/>
    <path class="st0" d="M252.77,10.22v1.09h-5.31v5.45h5.07v1.09h-5.07v5.85h5.45v1.09h-6.74v-14.58h6.6Z"/>
    <path class="st0" d="M256.38,17.73v7.07h-1.29v-14.58h4.02c2.81,0,3.51.93,3.51,3.49,0,1.82-.3,3.03-2.26,3.47v.04c2.04.42,2.16.67,2.16,5.87,0,.57.1,1.13.14,1.7h-1.23c-.12-.42-.18-2.85-.2-3.63-.02-.63.4-3.43-2.4-3.43h-2.44ZM256.38,16.64h2.1c1.94,0,2.85-.5,2.85-2.95,0-2-.79-2.38-2.3-2.38h-2.64v5.33Z"/>
    <path class="st0" d="M275.93,13.91c-.04-1.8-.48-2.89-2.46-2.89-1.57,0-2.56.54-2.56,2.26,0,2.16,1.09,2.22,2.74,3.41,1.8,1.29,3.63,1.68,3.63,4.5,0,2.6-1.33,3.88-3.88,3.88-2.85,0-4.12-1.53-4-4.38h1.33c0,1.62.12,3.29,2.72,3.29,1.7,0,2.52-.91,2.52-2.58,0-1.98-1.31-2.54-3.41-3.84-2.83-1.74-2.95-2.6-2.97-4.06-.02-2.52,1.57-3.57,3.96-3.57,3.03,0,3.67,1.88,3.67,3.98h-1.31Z"/>
    <path class="st0" d="M279.51,17.5c0-3.94.04-7.57,4.4-7.57,3.53,0,3.59,2.91,3.59,4.22h-1.29c0-1.62-.44-3.13-2.3-3.13-3.07,0-3.11,2.6-3.11,6.48s.04,6.48,3.11,6.48c1.68,0,2.3-1.49,2.32-3.37h1.37c0,1.05-.24,4.46-3.69,4.46-4.36,0-4.4-3.63-4.4-7.57Z"/>
    <path class="st0" d="M291.26,10.22v14.58h-1.29v-14.58h1.29Z"/>
    <path class="st0" d="M300.73,10.22v1.09h-5.31v5.45h5.07v1.09h-5.07v5.85h5.45v1.09h-6.74v-14.58h6.6Z"/>
    <path class="st0" d="M303.14,24.79v-14.58h1.98l5.91,12.8.04-.04v-12.76h1.29v14.58h-1.96l-5.94-12.94-.04.04v12.9h-1.29Z"/>
    <path class="st0" d="M314.96,17.5c0-3.94.04-7.57,4.4-7.57,3.53,0,3.59,2.91,3.59,4.22h-1.29c0-1.62-.44-3.13-2.3-3.13-3.07,0-3.11,2.6-3.11,6.48s.04,6.48,3.11,6.48c1.68,0,2.3-1.49,2.32-3.37h1.37c0,1.05-.24,4.46-3.69,4.46-4.36,0-4.4-3.63-4.4-7.57Z"/>
    <path class="st0" d="M331.98,10.22v1.09h-5.31v5.45h5.07v1.09h-5.07v5.85h5.45v1.09h-6.74v-14.58h6.6Z"/>
  </g>
  <rect class="st0" x="45.83" width=".77" height="35.69"/>
  <path class="st0" d="M227.56,35.8h-2.15v-.35c.06-.01.11-.03.15-.04.04-.02.07-.06.09-.11.03-.06.04-.14.05-.26.01-.21.04-.93.06-2.16.03-1.23.05-2.18.06-2.86-.18-.17-.32-.27-.44-.33-.11-.05-.28-.09-.51-.11v-.35h1.97c.3.42.53.75.7.97.17.22.48.62.94,1.19l1.83,2.27v-2.94c0-.38-.03-.64-.06-.78-.04-.13-.12-.22-.25-.27-.14-.04-.39-.07-.77-.09v-.35h2.59v.35c-.25,0-.43.04-.53.09-.11.05-.17.16-.2.32-.03.16-.05.43-.06.82l-.09,5.07h-.39l-.59-.73-.37-.46c-.18-.23-.35-.45-.52-.65l-2.6-3.2v3.41c0,.37.02.63.06.78.04.14.13.24.26.29.13.05.38.09.75.13v.35ZM220.8,29.84v2.44c.21.04.41.06.61.06.24,0,.46-.06.66-.17.2-.11.36-.25.48-.42.12-.17.19-.35.2-.53.02-.42-.09-.76-.33-1.02-.24-.26-.65-.4-1.22-.4-.16,0-.29.01-.4.03M220.8,32.86v.85c0,.57.02.97.04,1.17.02.21.08.35.19.43.1.08.29.12.57.13v.37h-2.75v-.37c.25-.02.43-.05.53-.1.1-.05.17-.12.21-.23.04-.11.05-.29.06-.54,0-.18.01-.46.01-.84v-2.39c0-.67-.01-1.09-.04-1.27-.03-.18-.09-.3-.19-.35-.1-.06-.29-.1-.58-.12v-.36h2.98c.76,0,1.3.16,1.63.47.33.31.49.72.49,1.23,0,.22-.05.45-.14.68-.09.23-.23.44-.43.63-.19.19-.43.33-.72.42l1.16,2.02c.14.26.27.46.38.6.11.13.22.23.34.29.12.06.27.1.45.13v.22c-.18.01-.32.02-.42.02-.41,0-.76-.05-1.03-.15-.27-.1-.5-.26-.69-.48-.19-.22-.37-.52-.56-.9l-.36-.77c-.12-.28-.23-.47-.32-.57-.09-.1-.19-.16-.28-.18-.1-.02-.27-.03-.54-.04M215.3,35.46c.22,0,.45-.07.68-.2.23-.12.44-.33.62-.61.2-.31.34-.62.41-.92.08-.31.12-.66.12-1.05,0-1.02-.25-1.8-.74-2.33-.36-.37-.75-.54-1.18-.53-.43,0-.81.19-1.15.58-.45.51-.68,1.21-.68,2.11,0,.46.04.86.13,1.2.09.34.24.68.47,1,.2.27.41.47.64.59.23.12.46.17.68.17M218.58,32.62c0,.73-.15,1.36-.45,1.88-.3.52-.7.92-1.2,1.19-.5.27-1.04.4-1.63.4-.64,0-1.21-.14-1.73-.43-.52-.29-.92-.7-1.22-1.22-.3-.52-.45-1.13-.45-1.81,0-.61.13-1.17.39-1.69.26-.52.64-.93,1.13-1.25.5-.31,1.08-.47,1.76-.47s1.24.14,1.76.43c.51.29.92.7,1.2,1.21.29.52.43,1.11.43,1.77M208.13,32.63h-.61v1.53c0,.29.01.5.04.63.02.13.09.24.21.31.12.07.31.11.58.11.22,0,.45-.04.69-.13.24-.09.44-.23.6-.43.16-.2.24-.45.24-.77,0-.35-.07-.61-.2-.79-.14-.19-.33-.31-.57-.37-.25-.06-.57-.09-.98-.09M207.52,29.81v2.21c.39,0,.74-.02,1.04-.07.29-.06.54-.18.74-.36.19-.19.29-.46.29-.82,0-.38-.14-.63-.42-.77-.28-.14-.67-.21-1.17-.21-.1,0-.26,0-.47.02M205.46,29.23h3.38c.3,0,.57.02.8.05.23.03.44.11.62.22.21.12.37.29.48.51.11.22.17.45.17.71,0,.84-.56,1.37-1.67,1.6.3.03.56.07.78.12.21.05.41.14.6.27.43.31.64.74.64,1.31s-.22,1.05-.66,1.39c-.2.16-.42.26-.67.31-.24.05-.56.07-.94.07h-3.03v-.35c.17-.04.25-.23.25-.57.01-.31.02-.86.02-1.65v-1.96c0-.59-.01-.98-.04-1.18-.02-.2-.08-.32-.18-.38-.1-.06-.29-.1-.58-.12v-.35ZM201.37,29.78v2.37c.18.04.39.07.61.07.24,0,.46-.05.66-.15.21-.1.37-.23.48-.39.12-.16.18-.33.19-.51.03-.42-.09-.76-.33-1.03-.25-.27-.65-.4-1.22-.4-.16,0-.29.01-.4.04M201.37,32.74v.97c0,.57.02.96.04,1.17.02.21.08.35.19.43.1.08.29.12.57.13v.36h-2.75v-.36c.25-.02.42-.06.53-.1s.17-.12.2-.23c.04-.11.06-.29.06-.54,0-.18,0-.47,0-.85v-2.37c0-.68-.02-1.1-.04-1.28-.02-.18-.09-.3-.19-.35-.1-.06-.29-.1-.57-.11v-.35h2.98c.76,0,1.3.15,1.63.46.34.31.5.72.5,1.23,0,.34-.11.66-.33.96-.22.3-.54.52-.97.65l1.17,2.14c.14.26.26.46.37.6.11.13.22.23.34.29.12.06.27.1.46.13v.22c-.19.01-.33.02-.43.02-.41,0-.75-.05-1.02-.15-.27-.1-.5-.26-.69-.48-.19-.22-.38-.52-.56-.91l-.36-.76c-.13-.29-.24-.49-.34-.61-.09-.12-.19-.2-.31-.23-.11-.04-.28-.05-.5-.06M196.57,33.25l-.92-2.73-.96,2.73h1.88ZM199.31,35.8h-3.07v-.35c.27-.02.48-.06.6-.11.13-.05.19-.16.19-.32,0-.1-.02-.23-.07-.39l-.2-.67h-2.31l-.21.57c-.05.17-.08.3-.08.41,0,.21.08.34.24.4.15.06.37.1.65.12v.35h-2.7v-.35c.24-.01.43-.04.56-.09.14-.05.25-.13.34-.25.09-.12.18-.29.26-.53l1.77-4.87-.1-.15c.37-.12.64-.22.8-.29.17-.08.33-.18.51-.31.08.28.17.6.29.96l1.46,4.46c.09.29.17.5.25.63.08.13.17.23.29.3.12.06.3.11.53.14v.35ZM192.29,35.8h-5v-.36c.24-.02.41-.05.51-.09.1-.04.17-.11.21-.21.04-.1.06-.28.06-.53.01-.21.02-.58.02-1.13v-2.31c0-.62-.02-1.02-.05-1.19-.04-.14-.1-.24-.2-.28-.1-.04-.28-.08-.55-.1v-.35h4.68l.03,1.56h-.3c-.05-.29-.13-.51-.25-.65-.12-.14-.28-.23-.49-.27-.21-.04-.52-.06-.93-.06h-.81v2.3h.71c.28,0,.49-.02.63-.07.14-.04.23-.12.29-.23.05-.1.09-.27.11-.48h.32v2.17h-.32c0-.25-.03-.43-.09-.54-.06-.11-.16-.19-.3-.22-.14-.03-.36-.05-.65-.05h-.7v1.84c0,.23.07.39.21.5.14.1.42.16.83.16s.75-.02.95-.04c.2-.03.38-.12.54-.28.16-.16.28-.42.34-.79h.32c-.1.72-.15,1.29-.15,1.69M182.75,29.82h-.58v4.26c0,.34.02.58.04.73.03.15.1.25.2.3.1.05.27.08.49.08.6,0,1.11-.12,1.53-.36.42-.24.73-.58.94-1,.21-.42.31-.9.31-1.43,0-.41-.06-.76-.19-1.05-.13-.29-.33-.58-.59-.86-.19-.21-.4-.36-.64-.45-.24-.09-.46-.15-.69-.17-.21-.02-.49-.03-.82-.04M183.1,35.8h-2.92v-.37c.23-.02.39-.06.49-.1.1-.04.16-.11.2-.22.03-.1.05-.28.06-.53.01-.21.02-.58.02-1.13v-2.3c0-.63-.02-1.03-.05-1.2-.03-.14-.1-.24-.19-.28-.1-.04-.27-.08-.52-.1v-.35h3.01c.54,0,.98.02,1.33.07.35.05.69.17,1.01.36.4.25.75.61,1.04,1.09.29.48.43,1.04.43,1.69,0,.84-.23,1.55-.69,2.15-.28.36-.61.62-.98.79-.38.17-.73.28-1.07.32-.33.04-.72.06-1.16.07M179.25,32.32h-2.49l-.18,1.07h2.49l.19-1.07ZM86.54,31.23c.04-.76-.34-1.42-1.55-1.42-.17,0-.27,0-.4.04v2.43c.18.04.43.06.61.07.74,0,1.31-.59,1.34-1.11M88.79,35.69v.22c-.14,0-.28.02-.43.02-1.23,0-1.74-.43-2.26-1.53l-.36-.77c-.39-.82-.52-.77-1.14-.78v.85c0,1.5,0,1.7.79,1.72v.36h-2.73v-.36c.71-.06.78-.17.79-.87,0-.27,0-.57,0-.84v-2.37c0-.79,0-1.06-.04-1.28-.05-.36-.22-.43-.76-.47v-.35h2.97c1.61,0,2.12.78,2.12,1.69,0,.63-.39,1.46-1.29,1.73l1.16,2.02c.42.77.64.95,1.17,1.02M162.1,32.88h-2.64v.35c.73.08.84.09.87.93,0,.29-.02.44-.13.62-.04.04-.41.55-1.14.55-1.28,0-2.02-1.29-2.02-2.79,0-1.88.95-2.85,2.09-2.85.66,0,1.08.27,1.29.49.49.49.69.94.83,1.33l.27-.05-.05-2.05-.34.39c-.54-.32-1.18-.74-2.3-.74-1.77,0-3.2,1.36-3.2,3.46,0,1.72,1.08,3.42,3.33,3.42,1.29,0,2.01-.45,2.52-.77v-.49c.02-1.24.02-1.41.61-1.45v-.35ZM80.17,35.2c-.87,0-1.05-.23-1.05-.66v-1.84h.71c.81,0,1.04.07,1.04.8h.32v-2.16h-.32c-.06.58-.18.77-1.03.77h-.71v-2.3h.81c1.11,0,1.51.08,1.66.97h.3l-.04-1.56h-4.67v.35c.47.05.68.07.74.38.05.2.06.93.06,1.19v2.31c0,.17,0,.96-.02,1.12-.02.71-.1.78-.78.84v.36h4.99c0-.47.08-1.25.14-1.7h-.32c-.22,1.17-.88,1.11-1.83,1.11M106.84,29.59c.45.03.72.04.72.35,0,.15-.09.34-.26.67l-.93,1.63-1-1.64c-.17-.28-.29-.48-.29-.66,0-.32.31-.33.99-.35v-.36h-3.41v.36c.63.04.64.06,1.11.76l1.74,2.7v1.15c0,.71,0,.88-.16,1.03-.13.13-.32.15-.84.2v.35h3.23v-.35c-.97-.06-.98-.15-.98-1.34v-1.36l1.02-1.7c.75-1.22.94-1.42,1.6-1.44v-.36h-2.56v.36ZM74.89,29.58c.41,0,.87.03.87.5,0,.17-.11.46-.2.7l-1.34,3.44-1.14-3.33c-.18-.55-.22-.71-.22-.89,0-.38.34-.4.87-.42v-.35h-3.11v.35c.66.1.71.25,1.16,1.49l1.79,4.83h.35l1.99-4.76c.54-1.3.62-1.47,1.25-1.57v-.35h-2.29v.35ZM57.51,29.58c.58.05.89.06.93.66,0,.21,0,.99,0,1.23,0,.76,0,1.91-.2,2.52-.22.77-.74,1.26-1.67,1.26-.29,0-.86-.06-1.19-.55-.42-.62-.44-1.3-.44-2.1v-1.54c0-1.39,0-1.42.88-1.48v-.35h-2.95v.35c.49.03.7.11.75.52.02.17.02.48.03,1.19v1.48c0,1.06,0,2.04.98,2.7.61.41,1.35.46,1.71.46.46,0,2.17-.09,2.62-1.85.11-.47.14-.96.16-1.46,0-.28.08-2.1.09-2.25.04-.65.17-.79.78-.78v-.35h-2.49v.35ZM96.45,29.23l-.06,1.84h.34c.06-1.17.55-1.14,1.29-1.14h.82v4.83c0,.52-.17.74-.77.75v.28h2.71v-.28c-.6,0-.77-.23-.77-.75v-4.83h.82c.74,0,1.23-.03,1.29,1.14h.34l-.06-1.84h-5.95ZM92.23,32.21c-.27-.16-.57-.26-.95-.38-.73-.24-1.5-.5-1.5-1.28,0-.52.41-.85,1.1-.85.52,0,.96.19,1.28.6.26.34.34.54.45.97l.32-.06-.21-1.95-.4.29c-.56-.35-1.07-.45-1.5-.45-1.12,0-2.09.69-2.09,1.91s1.01,1.69,1.55,1.88c.26.1.54.19.8.29.32.13,1.03.43,1.03,1.17s-.61,1-1.31,1c-.98,0-1.59-.58-1.95-1.64l-.33.04.09,1.29.54.4c.26.17.81.52,1.7.52,1.38,0,2.31-.94,2.31-2.07,0-.79-.43-1.36-.95-1.67M64.57,29.58c1.04.04,1.07.09,1.08,1.13v2.94l-1.83-2.27c-.96-1.2-1.09-1.37-1.63-2.15h-1.97v.35c.44.04.58.1.95.44,0,.68-.04,4.57-.13,5.01-.07.37-.28.38-.82.41v.35h2.67v-.35c-1-.1-1.08-.14-1.08-1.2v-3.41l2.59,3.2c.3.36.59.73.89,1.1l.58.73h.39l.09-5.06c0-1.07.07-1.22.79-1.22v-.35h-2.58v.35ZM93.33,29.58c.77.11.77.15.78,1.51v3.5c-.01.69-.14.76-.78.84v.35h2.72v-.35c-.51-.04-.7-.13-.74-.53-.02-.19-.03-.93-.03-1.16v-2.65c0-1.4,0-1.44.77-1.51v-.35h-2.72v.35ZM67.57,29.58c.77.11.77.15.78,1.51v3.5c0,.69-.14.76-.78.84v.35h2.72v-.35c-.51-.04-.69-.13-.74-.53-.02-.19-.03-.93-.03-1.16v-2.65c0-1.4,0-1.44.77-1.51v-.35h-2.72v.35ZM118.93,29.23v.35c.47.05.68.08.74.38.04.2.06.93.06,1.19v2.3c0,.18-.01.97-.02,1.13-.02.71-.1.78-.78.84v.36h2.71v-.36c-.68-.06-.76-.13-.78-.84v-1.88h.72c.73,0,1.12.07,1.17.8h.31v-2.16h-.31c-.04.71-.23.77-1.03.77h-.86v-2.27c.23-.03.36-.04.78-.04,1.28,0,1.69,0,1.86,1.02h.33l-.1-1.6h-4.8ZM117.45,32.31c-.03-.84-.26-1.57-.74-2.08-.21-.22-.63-.56-1.17-.54-.54,0-.95.34-1.15.57-.46.53-.68,1.26-.68,2.11s.11,1.5.6,2.2c.42.6.95.77,1.32.77.37,0,.89-.19,1.3-.81.46-.71.56-1.36.53-2.21M118.89,32.49c0,2.26-1.54,3.45-3.28,3.45-1.9,0-3.39-1.37-3.39-3.46,0-1.79,1.2-3.4,3.3-3.39,1.98,0,3.36,1.42,3.36,3.4M166.03,33.24l-.92-2.71-.96,2.71h1.88ZM172.92,29.23h2.58v.35c-.71,0-.78.16-.79,1.22l-.09,5.05h-.39l-.58-.73c-.3-.37-.59-.74-.89-1.1l-2.59-3.19v3.4c0,1.06.07,1.09,1.08,1.2v.35h-5.54v-.35c.45-.03.79-.06.79-.43,0-.13-.04-.27-.07-.39l-.2-.67h-2.31l-.2.57c-.05.14-.08.27-.08.41,0,.46.49.49.89.51v.35h-2.7v-.35c.69-.03.91-.17,1.16-.85l1.77-4.86-.1-.16c.76-.25.97-.36,1.3-.6.13.45.15.5.3.96l1.45,4.45c.25.77.38.97,1.02,1.05.43-.02.61-.06.68-.4.09-.44.12-4.33.13-5.01-.36-.33-.51-.4-.94-.44v-.35h1.96c.55.78.67.96,1.63,2.15l1.83,2.26v-2.93c0-1.04-.04-1.09-1.08-1.13v-.35ZM131.06,34.21l-2.04-4.98h-2.06v.35c.59,0,.72.06.72.71,0,.23,0,.55,0,.76l-.09,2.75c0,.36-.04.91-.06,1.09-.04.45-.24.52-.77.55v.35h2.27v-.35c-.7-.06-.77-.18-.77-.82l.05-3.86,2.1,5.12h.57l2.29-5.05v3.3c0,1.21,0,1.25-.83,1.31v.35h2.87v-.35c-.52-.05-.71-.14-.74-.62-.03-.33-.04-.89-.04-1.34v-2.71c0-1.02,0-1.1.78-1.15v-.39h-2l-2.24,4.98ZM135.94,29.58c.77.11.77.15.78,1.51v3.5c0,.69-.14.76-.78.84v.35h2.72v-.35c-.51-.04-.7-.13-.74-.53-.02-.19-.03-.93-.03-1.16v-2.65c0-1.4,0-1.44.77-1.51v-.35h-2.72v.35ZM152.74,29.58c.77.11.77.15.78,1.51v3.49c0,.69-.14.76-.78.84v.35h2.72v-.35c-.51-.04-.69-.13-.74-.53-.02-.2-.03-.93-.03-1.16v-2.64c0-1.4,0-1.44.77-1.51v-.35h-2.72v.35ZM149.36,29.58c.89.08.9.13.91,1.33v1.1c-.56.03-1,.05-1.55.05s-.94-.02-1.51-.05v-.9c0-.39,0-.88.05-1.09.07-.36.27-.38.82-.44v-.35h-2.8v.35c.51.05.7.1.73.49.03.2.03.63.03,1.06v2.75c0,.23,0,.46,0,.69,0,.63-.01.79-.75.85v.35h2.8v-.35c-.85-.09-.86-.09-.87-1.46v-1.2c.56-.03,1.01-.05,1.57-.05.54,0,.97.03,1.49.05v1.2c0,.47,0,.72-.02.91-.06.45-.23.47-.89.55v.35h2.84v-.35c-.48-.05-.68-.11-.72-.46-.03-.19-.04-1.02-.04-1.28v-2.76c0-1.24,0-1.26.76-1.35v-.35h-2.84v.35ZM144.4,34.03l.39.29c-.29.47-.99,1.63-2.79,1.63-1.97,0-3.25-1.46-3.25-3.37,0-1.77,1.08-3.51,3.29-3.51,1.16,0,1.78.49,2.16.79l.45-.41.03,1.99-.29.05c-.11-.38-.28-.69-.7-1.15-.2-.21-.69-.64-1.38-.64-1.18,0-2.12.96-2.12,2.66,0,1.44.77,2.79,2.28,2.79,1.14,0,1.57-.64,1.92-1.13"/>
</svg>