<?xml version="1.0" encoding="UTF-8"?>
<svg id="Admissions" xmlns="http://www.w3.org/2000/svg" version="1.1" viewBox="0 0 79.67 87.65">
  <!-- Generator: Adobe Illustrator 29.5.1, SVG Export Plug-In . SVG Version: 2.1.0 Build 141)  -->
  <defs>
    <style>
      .st0 {
        fill: #fff;
      }

      .st1 {
        fill: #ffcf01;
      }

      .st2 {
        fill: #10284b;
      }
    </style>
  </defs>
  <rect class="st2" width="79.67" height="87.65"/>
  <g>
    <g>
      <path class="st0" d="M18.02,65.84c0-4.03,0-7.87,5.25-7.87,3.25,0,4.56,1.79,4.43,5.06h-3.12c0-2.03-.36-2.79-1.31-2.79-1.79,0-2.03,1.69-2.03,5.59s.23,5.59,2.03,5.59c1.48,0,1.41-1.9,1.45-3.1h3.14c0,4.07-1.62,5.38-4.6,5.38-5.25,0-5.25-3.88-5.25-7.87Z"/>
      <path class="st0" d="M29.91,73.46v-15.23h8.31v2.34h-5.13v3.76h4.73v2.34h-4.73v4.45h5.3v2.34h-8.48Z"/>
      <path class="st0" d="M40.31,65.84c0-4.03,0-7.87,5.25-7.87,3.25,0,4.56,1.79,4.43,5.06h-3.12c0-2.03-.36-2.79-1.31-2.79-1.79,0-2.03,1.69-2.03,5.59s.23,5.59,2.03,5.59c1.48,0,1.41-1.9,1.46-3.1h3.14c0,4.07-1.62,5.38-4.6,5.38-5.25,0-5.25-3.88-5.25-7.87Z"/>
      <path class="st0" d="M56.33,73.71c-3.95,0-4.69-2.32-4.52-4.96h3.19c0,1.46.06,2.68,1.81,2.68,1.08,0,1.6-.7,1.6-1.73,0-2.74-6.41-2.91-6.41-7.45,0-2.38,1.14-4.28,5.02-4.28,3.1,0,4.64,1.39,4.43,4.58h-3.1c0-1.14-.19-2.3-1.48-2.3-1.04,0-1.65.57-1.65,1.62,0,2.89,6.41,2.64,6.41,7.43,0,3.95-2.89,4.41-5.32,4.41Z"/>
    </g>
    <g>
      <path class="st1" d="M39.88,39.54l-8.88-12.13v8.83h3.53v8.72h-16.33v-8.72h3.31v-13.57h-3.31v-8.72h12.83l8.85,12.22,8.85-12.22h12.83v8.72h-3.31v13.57h3.31v8.72h-16.33v-8.72h3.53v-8.83l-8.87,12.13Z"/>
      <path class="st0" d="M20.21,53.91h-2.1v-.27c.16-.02.28-.04.35-.07.07-.03.12-.08.14-.16.03-.08.04-.2.04-.38,0-.15.01-.42.01-.81v-1.65c0-.46-.01-.74-.04-.86-.02-.1-.07-.17-.14-.2-.07-.03-.19-.05-.37-.07v-.25h2.17c.39,0,.71.02.96.05.25.04.49.12.73.26.29.18.54.44.75.79.21.35.31.75.31,1.22,0,.6-.16,1.12-.5,1.55-.2.26-.44.45-.71.57-.27.12-.53.2-.77.23-.24.03-.52.05-.84.06ZM19.96,49.61h-.42v3.07c0,.24.01.42.03.52.02.1.07.18.14.22.07.04.19.06.36.06.43,0,.8-.09,1.1-.26.3-.17.53-.41.68-.72.15-.3.23-.65.23-1.03,0-.29-.05-.55-.14-.76-.09-.21-.23-.42-.42-.62-.14-.15-.29-.26-.46-.33-.17-.07-.34-.11-.49-.12-.16-.02-.36-.02-.59-.03ZM58.48,53.66c-.26-.03-.44-.06-.54-.09-.09-.04-.16-.11-.19-.21-.03-.11-.05-.29-.05-.56v-2.46l1.87,2.3c.12.15.25.31.38.47l.26.33.42.52h.28l.07-3.65c0-.27.02-.47.04-.59.02-.12.07-.19.15-.23.08-.04.2-.06.38-.06v-.25h-1.86v.25c.27.01.46.03.55.06.1.03.16.09.18.19.02.1.04.28.04.56v2.12l-1.32-1.63c-.33-.41-.56-.69-.68-.86-.12-.16-.29-.39-.51-.7h-1.42v.25c.16.02.28.04.36.08.08.04.19.12.32.23,0,.48-.02,1.17-.05,2.06-.02.89-.04,1.41-.04,1.56,0,.08-.02.14-.04.18-.02.04-.04.07-.07.08-.03.01-.06.02-.11.03v.25h1.55v-.25ZM52.75,51.79v.61c0,.41.01.69.03.84.02.15.06.25.13.31.07.06.21.09.41.09v.27h-1.97v-.27c.18-.01.3-.03.38-.07.07-.03.12-.09.15-.17.03-.08.04-.21.04-.39,0-.13,0-.33,0-.61v-1.71c0-.48,0-.79-.02-.92-.02-.13-.06-.21-.13-.25-.07-.04-.21-.07-.42-.09v-.26h2.14c.54,0,.93.11,1.17.34.24.23.36.52.36.88,0,.16-.04.33-.1.49-.07.17-.17.32-.31.46-.14.14-.31.24-.52.3l.84,1.45c.1.19.19.34.27.43.08.1.16.17.25.21.08.04.19.08.33.1v.16c-.13,0-.23.01-.3.01-.3,0-.54-.04-.74-.11-.19-.07-.36-.19-.49-.34-.14-.16-.27-.37-.4-.65l-.26-.56c-.09-.2-.17-.33-.23-.41-.07-.07-.13-.12-.2-.13-.07-.01-.2-.02-.39-.03ZM52.75,49.63v1.75c.15.03.3.04.44.04.17,0,.33-.04.48-.12.14-.08.26-.18.35-.3.09-.12.13-.25.14-.38.02-.3-.06-.55-.24-.74-.17-.19-.47-.28-.87-.28-.11,0-.21,0-.29.02ZM50.46,51.62c0,.52-.11.97-.32,1.35-.22.38-.5.66-.86.85-.36.19-.75.29-1.18.29-.46,0-.87-.1-1.24-.31s-.67-.5-.88-.88c-.21-.38-.32-.81-.32-1.3,0-.44.1-.84.28-1.22.19-.37.46-.67.82-.9.36-.22.78-.34,1.27-.34s.89.1,1.26.31c.37.21.66.5.87.87.21.37.31.8.31,1.27ZM48.11,53.67c.16,0,.32-.05.49-.14.17-.09.31-.24.45-.44.14-.22.24-.45.3-.67.06-.22.08-.47.08-.76,0-.73-.18-1.3-.53-1.68-.26-.26-.54-.39-.85-.38-.31,0-.58.14-.83.41-.32.37-.49.87-.49,1.52,0,.33.03.62.09.86.06.24.18.49.34.72.14.2.29.34.46.42.17.09.33.13.49.13ZM40.47,49.18h2.43c.22,0,.41.01.58.04.17.03.31.08.45.16.15.08.27.21.35.36.08.16.12.33.12.51,0,.6-.4.99-1.2,1.15.22.02.41.05.56.09.15.04.3.1.43.2.31.22.46.53.46.94s-.16.75-.47,1c-.14.11-.3.18-.48.22-.17.04-.4.06-.67.06h-2.18v-.25c.12-.03.18-.16.18-.41,0-.22.01-.62.01-1.19v-1.41c0-.43,0-.71-.03-.85-.02-.14-.06-.23-.13-.28-.07-.04-.21-.07-.42-.09v-.25ZM41.96,49.6v1.59c.29,0,.54-.02.75-.05.21-.04.39-.13.53-.26.14-.13.21-.33.21-.59s-.1-.45-.3-.55c-.2-.1-.48-.15-.84-.15-.07,0-.18,0-.34.01ZM42.4,51.63h-.44v1.1c0,.21,0,.36.03.46.02.1.07.17.15.23.08.05.22.08.42.08.16,0,.33-.03.5-.09.17-.06.31-.17.43-.31.12-.14.18-.33.18-.55,0-.25-.05-.44-.14-.57-.1-.13-.23-.22-.41-.26-.18-.05-.41-.07-.7-.07ZM36.63,51.71v.69c0,.41.01.7.03.85.02.15.06.25.14.31.07.06.21.09.41.1v.26h-1.97v-.26c.18-.02.3-.04.38-.08.07-.03.12-.09.15-.17.03-.08.04-.21.04-.39,0-.13,0-.34,0-.61v-1.71c0-.49,0-.79-.03-.92-.02-.13-.06-.21-.13-.25-.07-.04-.21-.07-.41-.08v-.25h2.14c.54,0,.94.11,1.18.33.24.22.36.52.36.88,0,.24-.08.47-.24.7-.16.22-.39.38-.7.47l.84,1.54c.1.19.19.34.27.43.08.1.16.17.25.21.09.04.2.08.33.1v.16c-.13,0-.24.01-.31.01-.3,0-.54-.04-.74-.11-.19-.07-.36-.19-.49-.35-.14-.16-.27-.38-.4-.65l-.26-.55c-.09-.2-.17-.35-.24-.44-.06-.09-.14-.14-.22-.17-.08-.02-.2-.04-.36-.04ZM36.63,49.58v1.7c.13.03.28.05.44.05.17,0,.33-.04.48-.11.15-.07.26-.17.35-.28.08-.12.13-.24.14-.37.02-.3-.06-.55-.24-.74-.18-.19-.47-.29-.88-.29-.11,0-.21,0-.28.03ZM34.07,53.91h-2.21v-.25c.2-.02.34-.04.43-.08.09-.04.14-.11.14-.23,0-.07-.02-.16-.05-.28l-.14-.48h-1.66l-.15.41c-.04.12-.05.22-.05.29,0,.15.05.25.17.29.11.04.27.07.47.08v.25h-1.94v-.25c.17,0,.31-.03.41-.06.1-.04.18-.09.24-.18.06-.08.13-.21.19-.38l1.28-3.5-.07-.11c.27-.09.46-.16.58-.21.12-.06.24-.13.36-.22.06.2.13.43.21.69l1.05,3.21c.07.21.13.36.18.45.05.1.12.17.21.21.09.05.21.08.38.1v.25ZM32.1,52.08l-.66-1.96-.69,1.96h1.36ZM27.92,52.69h-.23c-.05.26-.13.45-.25.57-.11.11-.24.18-.39.2-.15.02-.37.03-.68.03s-.5-.04-.6-.11c-.1-.07-.15-.19-.15-.36v-1.33h.51c.21,0,.37.01.47.04.1.02.17.08.22.16.04.08.06.21.06.39h.23v-1.56h-.23c-.02.15-.04.27-.08.34-.04.08-.11.13-.21.16-.1.03-.25.05-.45.05h-.51v-1.66h.58c.3,0,.52.01.67.04.15.03.26.09.35.19.08.1.14.25.18.46h.22l-.03-1.12h-3.37v.25c.19.02.33.04.4.07.07.03.12.1.14.2.03.12.04.41.04.86v1.66c0,.39,0,.66-.01.81,0,.18-.02.31-.05.38-.03.08-.08.13-.15.16-.07.03-.2.05-.37.07v.26h3.6c0-.29.04-.7.11-1.22Z"/>
    </g>
  </g>
</svg>