<?xml version="1.0" encoding="UTF-8"?>
<svg id="Admissions" xmlns="http://www.w3.org/2000/svg" version="1.1" viewBox="0 0 124.71 73.64">
  <!-- Generator: Adobe Illustrator 29.5.1, SVG Export Plug-In . SVG Version: 2.1.0 Build 141)  -->
  <defs>
    <style>
      .st0 {
        fill: #f2c318;
      }

      .st1 {
        fill: #081f40;
      }
    </style>
  </defs>
  <g>
    <path class="st0" d="M62.41,25.92l-8.99-12.29v8.94h3.58v8.83h-16.54v-8.83h3.36v-13.74h-3.36V0h13l8.96,12.38L71.37,0h12.99v8.83h-3.36v13.74h3.36v8.83h-16.54v-8.83h3.58v-8.94l-8.99,12.29Z"/>
    <path class="st1" d="M42.48,40.48h-2.12v-.27c.17-.02.29-.04.36-.07.07-.03.12-.08.14-.16.03-.08.04-.21.04-.39,0-.15.01-.42.01-.82v-1.67c0-.46-.01-.75-.04-.87-.02-.1-.07-.17-.14-.2-.07-.03-.19-.06-.38-.07v-.26h2.19c.39,0,.72.02.97.05.25.04.5.12.74.27.3.18.55.45.76.8.21.35.31.76.31,1.24,0,.61-.17,1.13-.5,1.57-.21.26-.45.45-.72.58-.27.13-.53.2-.78.23-.25.03-.53.05-.85.06ZM42.22,36.12h-.42v3.11c0,.25.01.42.03.53.02.11.07.18.14.22.07.04.19.06.36.06.44,0,.81-.09,1.11-.27.3-.18.53-.42.68-.73.15-.31.23-.65.23-1.04,0-.3-.05-.55-.14-.77-.09-.21-.24-.42-.43-.63-.14-.15-.29-.26-.47-.33-.17-.07-.34-.11-.5-.12-.16-.02-.36-.02-.6-.03ZM81.24,40.22c-.27-.03-.45-.06-.54-.1-.09-.04-.16-.11-.19-.21-.03-.11-.05-.29-.05-.57v-2.49l1.89,2.34c.12.15.25.31.38.48l.27.33.43.53h.28l.07-3.69c0-.28.02-.48.04-.59.02-.12.07-.2.15-.24.08-.04.21-.06.39-.07v-.26h-1.89v.26c.28.01.46.03.56.07.1.03.16.1.18.19.02.1.04.29.04.57v2.14l-1.33-1.66c-.33-.41-.56-.7-.69-.87-.12-.16-.29-.4-.51-.71h-1.43v.26c.16.02.29.04.37.08.08.04.19.12.32.24,0,.49-.02,1.18-.05,2.08-.02.9-.04,1.42-.05,1.58,0,.08-.02.15-.04.19-.02.04-.04.07-.07.08-.03.01-.07.02-.11.03v.26h1.57v-.26ZM75.44,38.34v.62c0,.42.01.7.03.85.02.15.06.25.14.31.08.06.21.09.42.09v.27h-2v-.27c.18-.01.3-.03.38-.07.08-.03.12-.09.15-.17.03-.08.04-.21.04-.4,0-.13,0-.34,0-.62v-1.74c0-.49,0-.79-.03-.93-.02-.13-.06-.21-.14-.26-.07-.04-.21-.07-.42-.09v-.26h2.17c.55,0,.95.11,1.19.34.24.23.36.53.36.89,0,.16-.04.33-.1.5-.07.17-.17.32-.31.46-.14.14-.31.24-.52.31l.85,1.47c.1.19.2.34.27.44.08.1.16.17.25.21.08.04.2.08.33.1v.16c-.13,0-.23.01-.31.01-.3,0-.55-.04-.75-.11-.2-.07-.36-.19-.5-.35-.14-.16-.27-.38-.41-.66l-.26-.57c-.09-.2-.17-.34-.24-.41-.07-.08-.14-.12-.2-.13-.07-.01-.2-.02-.39-.03ZM75.44,36.14v1.77c.15.03.3.04.45.04.17,0,.34-.04.48-.12s.26-.18.35-.31c.09-.13.13-.25.14-.38.02-.31-.06-.55-.24-.75-.18-.19-.47-.29-.89-.29-.11,0-.21,0-.29.02ZM73.12,38.16c0,.53-.11.99-.33,1.37-.22.38-.51.67-.87.86-.36.19-.76.29-1.19.29-.46,0-.88-.1-1.26-.32-.37-.21-.67-.51-.89-.89-.22-.38-.33-.82-.33-1.32,0-.44.1-.86.29-1.23.19-.38.47-.68.83-.91.36-.23.79-.34,1.28-.34s.9.11,1.28.32c.38.21.67.5.88.88.21.38.31.81.31,1.29ZM70.73,40.24c.17,0,.33-.05.5-.14.17-.09.32-.24.45-.45.15-.23.25-.45.3-.67.06-.22.09-.48.09-.77,0-.74-.18-1.31-.54-1.7-.26-.27-.54-.4-.86-.39-.31,0-.59.14-.84.42-.33.37-.5.89-.5,1.54,0,.34.03.63.09.87.06.25.18.49.35.73.14.2.3.34.47.43.17.09.33.13.49.13ZM63,35.69h2.46c.22,0,.42.01.58.04.17.03.32.08.45.16.15.09.27.21.35.37.08.16.12.33.12.51,0,.61-.41,1-1.21,1.17.22.02.41.05.57.09.16.04.3.1.43.2.31.22.47.54.47.95s-.16.76-.48,1.02c-.15.11-.31.19-.49.23-.18.04-.4.06-.68.06h-2.21v-.26c.12-.03.18-.17.18-.41,0-.23.01-.63.01-1.2v-1.43c0-.43,0-.72-.02-.86-.02-.14-.06-.24-.13-.28-.07-.04-.21-.07-.42-.09v-.26ZM64.51,36.12v1.61c.29,0,.54-.02.76-.05.21-.04.39-.13.54-.26.14-.13.21-.33.21-.6s-.1-.46-.31-.56c-.2-.1-.49-.15-.85-.15-.07,0-.19,0-.35.01ZM64.95,38.17h-.45v1.12c0,.21,0,.36.03.46.02.1.07.17.16.23.08.05.23.08.42.08.16,0,.33-.03.5-.1.17-.07.32-.17.43-.31.12-.14.18-.33.18-.56,0-.25-.05-.44-.15-.58-.1-.13-.24-.22-.42-.27-.18-.05-.42-.07-.71-.07ZM59.11,38.25v.7c0,.42.01.7.03.86.02.15.06.26.14.31.07.06.21.09.41.1v.26h-2v-.26c.18-.02.31-.04.38-.08.07-.03.12-.09.15-.17.03-.08.04-.21.04-.4,0-.13,0-.34,0-.62v-1.73c0-.49,0-.8-.03-.93-.02-.13-.06-.22-.13-.26-.07-.04-.21-.07-.42-.08v-.26h2.17c.55,0,.95.11,1.19.34.24.22.36.52.36.89,0,.25-.08.48-.24.7-.16.22-.4.38-.71.48l.85,1.56c.1.19.19.34.27.44.08.1.16.17.25.21.09.04.2.08.33.1v.16c-.13,0-.24.01-.31.01-.3,0-.55-.04-.75-.11-.2-.07-.36-.19-.5-.35-.14-.16-.27-.38-.41-.66l-.26-.56c-.1-.21-.18-.36-.24-.44-.07-.09-.14-.14-.22-.17-.08-.02-.21-.04-.37-.05ZM59.11,36.1v1.72c.13.03.28.05.44.05.18,0,.34-.04.49-.11.15-.07.26-.17.35-.29.08-.12.13-.24.14-.37.02-.31-.06-.55-.25-.75-.18-.19-.48-.29-.89-.29-.11,0-.21,0-.29.03ZM56.51,40.48h-2.24v-.26c.2-.02.35-.04.44-.08.09-.04.14-.11.14-.23,0-.07-.01-.16-.05-.28l-.14-.49h-1.69l-.15.41c-.04.12-.06.22-.06.29,0,.15.06.25.17.29.11.04.27.07.47.08v.26h-1.97v-.26c.18,0,.31-.03.41-.06.1-.04.18-.1.24-.18.06-.08.13-.21.19-.38l1.29-3.55-.07-.11c.27-.09.47-.16.58-.22.12-.06.24-.13.37-.22.06.2.13.43.21.7l1.06,3.25c.07.21.13.36.18.46.06.1.13.17.21.22.09.05.22.08.39.1v.26ZM54.52,38.62l-.67-1.99-.7,1.99h1.37ZM50.28,39.25h-.23c-.05.27-.13.46-.25.57-.12.12-.25.18-.39.2-.15.02-.38.03-.69.03s-.5-.04-.61-.11c-.1-.08-.16-.2-.16-.36v-1.34h.51c.21,0,.37.01.47.04.1.02.17.08.22.16.04.08.07.21.07.39h.23v-1.58h-.23c-.02.16-.04.27-.09.35-.04.08-.11.13-.21.17-.1.03-.25.05-.46.05h-.52v-1.68h.59c.3,0,.53.01.68.04.15.03.27.09.35.19.09.1.15.26.18.47h.22l-.02-1.13h-3.41v.26c.2.02.33.04.4.07.07.03.12.1.14.2.03.12.04.41.04.87v1.68c0,.4,0,.67-.01.82,0,.18-.02.31-.05.39-.03.08-.08.13-.15.16-.07.03-.2.05-.37.07v.26h3.64c0-.3.04-.71.11-1.23Z"/>
  </g>
  <g>
    <path class="st1" d="M0,50.57C0,48.41,0,46.36,2.81,46.36c1.74,0,2.44.96,2.37,2.71h-1.67c0-1.08-.19-1.49-.7-1.49-.96,0-1.08.9-1.08,2.99s.12,2.99,1.08,2.99c.79,0,.76-1.02.78-1.66h1.68c0,2.18-.87,2.88-2.46,2.88C0,54.78,0,52.7,0,50.57Z"/>
    <path class="st1" d="M6.45,50.57c0-2.16,0-4.21,2.81-4.21s2.81,2.05,2.81,4.21,0,4.21-2.81,4.21-2.81-2.08-2.81-4.21ZM10.34,50.57c0-2.09-.12-2.99-1.08-2.99s-1.08.9-1.08,2.99.12,2.99,1.08,2.99,1.08-.9,1.08-2.99Z"/>
    <path class="st1" d="M13.5,54.64v-8.15h1.71v6.8h2.55v1.35h-4.26Z"/>
    <path class="st1" d="M18.81,54.64v-8.15h1.71v6.8h2.55v1.35h-4.26Z"/>
    <path class="st1" d="M24.11,54.64v-8.15h4.45v1.25h-2.74v2.01h2.53v1.25h-2.53v2.38h2.83v1.25h-4.54Z"/>
    <path class="st1" d="M33.52,49c.01-.76-.11-1.42-1.02-1.42-1.06,0-1.06,1.43-1.06,3.02,0,2.55.25,3,1.22,3,.28,0,.59-.07.85-.16v-1.81h-.93v-1.25h2.63v4.13c-.46.09-1.63.27-2.3.27-2.87,0-3.2-1.19-3.2-4.28,0-2.06.1-4.14,2.89-4.14,1.67,0,2.71.94,2.61,2.64h-1.69Z"/>
    <path class="st1" d="M36.74,54.64v-8.15h4.45v1.25h-2.74v2.01h2.53v1.25h-2.53v2.38h2.83v1.25h-4.54Z"/>
    <path class="st1" d="M44.81,50.57c0-2.16,0-4.21,2.81-4.21s2.81,2.05,2.81,4.21,0,4.21-2.81,4.21-2.81-2.08-2.81-4.21ZM48.71,50.57c0-2.09-.12-2.99-1.08-2.99s-1.08.9-1.08,2.99.12,2.99,1.08,2.99,1.08-.9,1.08-2.99Z"/>
    <path class="st1" d="M51.85,54.64v-8.15h4.23v1.25h-2.53v2.09h2.42v1.25h-2.42v3.56h-1.7Z"/>
    <path class="st1" d="M59.4,54.64v-8.15h4.45v1.25h-2.74v2.01h2.53v1.25h-2.53v2.38h2.83v1.25h-4.54Z"/>
    <path class="st1" d="M65.18,54.64v-8.15h2.3l2.17,5.65h.02v-5.65h1.59v8.15h-2.25l-2.22-5.96h-.02v5.96h-1.59Z"/>
    <path class="st1" d="M76.49,49c.01-.76-.11-1.42-1.02-1.42-1.06,0-1.06,1.43-1.06,3.02,0,2.55.25,3,1.22,3,.28,0,.59-.07.85-.16v-1.81h-.93v-1.25h2.63v4.13c-.46.09-1.63.27-2.3.27-2.87,0-3.2-1.19-3.2-4.28,0-2.06.1-4.14,2.89-4.14,1.67,0,2.71.94,2.61,2.64h-1.69Z"/>
    <path class="st1" d="M79.69,54.64v-8.15h1.7v8.15h-1.7Z"/>
    <path class="st1" d="M82.91,54.64v-8.15h2.3l2.17,5.65h.02v-5.65h1.59v8.15h-2.25l-2.22-5.96h-.02v5.96h-1.59Z"/>
    <path class="st1" d="M90.52,54.64v-8.15h4.45v1.25h-2.74v2.01h2.53v1.25h-2.53v2.38h2.83v1.25h-4.54Z"/>
    <path class="st1" d="M96.29,54.64v-8.15h4.45v1.25h-2.74v2.01h2.53v1.25h-2.53v2.38h2.83v1.25h-4.54Z"/>
    <path class="st1" d="M103.75,54.64h-1.71v-8.15h3.15c1.16,0,1.91.75,1.91,2.13,0,1.04-.41,1.82-1.51,2v.02c.37.04,1.48.13,1.48,1.6,0,.52.03,2.05.19,2.39h-1.67c-.23-.5-.18-1.05-.18-1.58,0-.97.09-1.79-1.22-1.79h-.44v3.38ZM103.75,50.02h.76c.68,0,.87-.68.87-1.2,0-.78-.33-1.07-.87-1.07h-.76v2.27Z"/>
    <path class="st1" d="M108.48,54.64v-8.15h1.71v8.15h-1.71Z"/>
    <path class="st1" d="M111.7,54.64v-8.15h2.3l2.17,5.65h.02v-5.65h1.59v8.15h-2.25l-2.22-5.96h-.02v5.96h-1.59Z"/>
    <path class="st1" d="M123.01,49c.01-.76-.11-1.42-1.02-1.42-1.06,0-1.06,1.43-1.06,3.02,0,2.55.25,3,1.22,3,.28,0,.59-.07.85-.16v-1.81h-.93v-1.25h2.63v4.13c-.46.09-1.63.27-2.3.27-2.87,0-3.2-1.19-3.2-4.28,0-2.06.1-4.14,2.89-4.14,1.67,0,2.71.94,2.61,2.64h-1.69Z"/>
  </g>
  <g>
    <path class="st1" d="M13.52,64.17c-.64.63-1.4.78-2.27.78-1.87,0-2.91-.88-2.91-2.47,0-1.08.76-1.77,1.6-2.33-.43-.55-.9-1.2-.9-2.04,0-.9,1.07-1.58,2.46-1.58.78,0,2.07.36,2.07,1.59,0,1.06-.73,1.6-1.39,2.19l1.28,1.67c.15-.53.18-.84.18-1.63h1.38c0,.85,0,1.91-.55,2.79l1.23,1.67h-1.67l-.5-.64ZM10.87,61.15c-.41.32-.82.78-.82,1.32,0,.78.46,1.25,1.24,1.25.49,0,.95-.16,1.24-.54l-1.66-2.03ZM12.01,58.24c0-.43-.26-.7-.7-.7-.36,0-.71.26-.71.64,0,.46.31.84.6,1.17.39-.25.81-.61.81-1.12Z"/>
    <path class="st1" d="M18.88,60.74c0-2.16,0-4.21,2.81-4.21,1.74,0,2.44.96,2.37,2.71h-1.67c0-1.08-.19-1.49-.7-1.49-.96,0-1.08.9-1.08,2.99s.12,2.99,1.08,2.99c.79,0,.76-1.02.78-1.66h1.68c0,2.18-.87,2.88-2.46,2.88-2.81,0-2.81-2.08-2.81-4.21Z"/>
    <path class="st1" d="M25.32,60.74c0-2.16,0-4.21,2.81-4.21s2.81,2.06,2.81,4.21,0,4.21-2.81,4.21-2.81-2.08-2.81-4.21ZM29.22,60.74c0-2.09-.12-2.99-1.08-2.99s-1.08.9-1.08,2.99.12,2.99,1.08,2.99,1.08-.9,1.08-2.99Z"/>
    <path class="st1" d="M32.36,64.81v-8.15h2.74l1.28,5.54h.02l1.36-5.54h2.65v8.15h-1.66v-6.29h-.02l-1.57,6.29h-1.63l-1.49-6.29h-.02v6.29h-1.66Z"/>
    <path class="st1" d="M41.92,56.66h3.07c1.56,0,2.17.95,2.17,2.44,0,.93-.27,2.39-2.27,2.39h-1.26v3.32h-1.71v-8.15ZM43.63,60.24h.95c.51,0,.86-.55.86-1.09,0-.67-.18-1.23-.95-1.23h-.86v2.33Z"/>
    <path class="st1" d="M53.88,56.66v5.78c0,1.22-.69,2.51-2.77,2.51-1.87,0-2.78-.97-2.78-2.51v-5.78h1.71v5.67c0,1.01.43,1.4,1.05,1.4.75,0,1.08-.5,1.08-1.4v-5.67h1.7Z"/>
    <path class="st1" d="M60.43,56.66v1.36h-1.9v6.8h-1.7v-6.8h-1.9v-1.36h5.5Z"/>
    <path class="st1" d="M61.5,64.81v-8.15h4.45v1.25h-2.74v2.01h2.53v1.25h-2.53v2.38h2.83v1.25h-4.54Z"/>
    <path class="st1" d="M68.95,64.81h-1.71v-8.15h3.15c1.16,0,1.91.75,1.91,2.13,0,1.04-.41,1.82-1.51,2v.02c.37.04,1.48.14,1.48,1.6,0,.52.03,2.06.19,2.39h-1.67c-.22-.5-.18-1.05-.18-1.58,0-.97.09-1.8-1.22-1.8h-.44v3.38ZM68.95,60.18h.76c.68,0,.87-.68.87-1.2,0-.78-.33-1.07-.87-1.07h-.76v2.27Z"/>
    <path class="st1" d="M78.29,64.95c-2.11,0-2.51-1.24-2.42-2.65h1.71c0,.78.04,1.43.97,1.43.57,0,.86-.37.86-.93,0-1.47-3.43-1.56-3.43-3.99,0-1.28.61-2.29,2.69-2.29,1.66,0,2.48.75,2.37,2.45h-1.66c0-.61-.1-1.23-.79-1.23-.55,0-.88.3-.88.87,0,1.55,3.43,1.41,3.43,3.97,0,2.11-1.55,2.36-2.84,2.36Z"/>
    <path class="st1" d="M82.36,60.74c0-2.16,0-4.21,2.81-4.21,1.74,0,2.44.96,2.37,2.71h-1.67c0-1.08-.19-1.49-.7-1.49-.96,0-1.08.9-1.08,2.99s.12,2.99,1.08,2.99c.79,0,.76-1.02.78-1.66h1.68c0,2.18-.87,2.88-2.46,2.88-2.81,0-2.81-2.08-2.81-4.21Z"/>
    <path class="st1" d="M88.85,64.81v-8.15h1.71v8.15h-1.71Z"/>
    <path class="st1" d="M92.06,64.81v-8.15h4.45v1.25h-2.74v2.01h2.53v1.25h-2.53v2.38h2.83v1.25h-4.54Z"/>
    <path class="st1" d="M97.84,64.81v-8.15h2.3l2.17,5.65h.02v-5.65h1.59v8.15h-2.25l-2.22-5.96h-.02v5.96h-1.59Z"/>
    <path class="st1" d="M105.34,60.74c0-2.16,0-4.21,2.81-4.21,1.74,0,2.44.96,2.37,2.71h-1.67c0-1.08-.19-1.49-.7-1.49-.96,0-1.08.9-1.08,2.99s.12,2.99,1.08,2.99c.79,0,.76-1.02.78-1.66h1.68c0,2.18-.87,2.88-2.46,2.88-2.81,0-2.81-2.08-2.81-4.21Z"/>
    <path class="st1" d="M111.84,64.81v-8.15h4.45v1.25h-2.74v2.01h2.53v1.25h-2.53v2.38h2.83v1.25h-4.54Z"/>
  </g>
</svg>