<?xml version="1.0" encoding="UTF-8"?>
<svg id="Admissions" xmlns="http://www.w3.org/2000/svg" version="1.1" viewBox="0 0 625.38 35.29">
  <!-- Generator: Adobe Illustrator 29.5.1, SVG Export Plug-In . SVG Version: 2.1.0 Build 141)  -->
  <defs>
    <style>
      .st0 {
        fill: #ffcc06;
      }

      .st1 {
        fill: #fff;
      }
    </style>
  </defs>
  <g>
    <path class="st0" d="M18.61,22.29l-7.59-10.37v7.54h3.02v7.45H.08v-7.45h2.83V7.87H.08V.42h10.97l7.57,10.45L26.17.42h10.96v7.45h-2.83v11.6h2.83v7.45h-13.96v-7.45h3.02v-7.54l-7.59,10.37Z"/>
    <path class="st1" d="M1.79,34.58H0v-.23c.14-.01.24-.03.3-.06.06-.02.1-.07.12-.13.02-.07.03-.17.04-.33,0-.13.01-.36.01-.69v-1.41c0-.39-.01-.63-.03-.74-.02-.09-.06-.14-.12-.17-.06-.03-.16-.05-.32-.06v-.22h1.85c.33,0,.6.02.82.05.21.03.42.11.62.23.25.15.46.38.64.67.18.3.27.64.27,1.04,0,.51-.14.96-.42,1.32-.17.22-.38.38-.61.49-.23.11-.45.17-.66.2-.21.03-.45.04-.72.05ZM1.58,30.9h-.36v2.62c0,.21,0,.36.03.45.02.09.06.15.12.18.06.03.16.05.31.05.37,0,.68-.07.94-.22.26-.15.45-.35.58-.61.13-.26.19-.55.19-.88,0-.25-.04-.47-.12-.65-.08-.18-.2-.36-.36-.53-.12-.13-.25-.22-.4-.28-.15-.06-.29-.09-.42-.11-.13-.01-.3-.02-.51-.03ZM34.51,34.36c-.23-.02-.38-.05-.46-.08-.08-.03-.13-.09-.16-.18-.03-.09-.04-.25-.04-.48v-2.1l1.6,1.97c.11.13.21.26.32.4l.23.28.36.45h.24l.06-3.12c0-.23.02-.4.04-.5.02-.1.06-.17.13-.2.07-.03.17-.05.33-.06v-.22h-1.59v.22c.23,0,.39.03.47.06.08.03.14.08.16.16.02.08.03.24.04.48v1.81l-1.13-1.4c-.28-.35-.48-.59-.58-.73-.1-.14-.25-.34-.43-.6h-1.21v.22c.14.01.24.04.31.07.07.03.16.1.27.2,0,.41-.02,1-.04,1.76-.02.76-.03,1.2-.04,1.33,0,.07-.01.12-.03.16-.02.04-.03.06-.06.07-.02.01-.06.02-.09.03v.22h1.32v-.22ZM29.61,32.77v.52c0,.35.01.59.03.72.01.13.05.22.12.26.06.05.18.07.35.08v.23h-1.69v-.23c.15,0,.26-.03.32-.06.06-.03.1-.07.13-.14.02-.07.03-.18.04-.33,0-.11,0-.28,0-.52v-1.47c0-.41,0-.67-.02-.78-.01-.11-.05-.18-.12-.22-.06-.03-.18-.06-.36-.07v-.22h1.83c.46,0,.8.1,1,.29.2.19.3.44.3.75,0,.14-.03.28-.09.42-.06.14-.15.27-.26.39-.12.12-.27.2-.44.26l.71,1.24c.09.16.17.29.23.37.07.08.14.14.21.18.07.04.16.06.28.08v.14c-.11,0-.2.01-.26.01-.25,0-.46-.03-.63-.09-.17-.06-.31-.16-.42-.29-.12-.13-.23-.32-.34-.55l-.22-.48c-.08-.17-.14-.29-.2-.35-.06-.06-.11-.1-.17-.11-.06-.01-.17-.02-.33-.02ZM29.61,30.92v1.5c.13.02.26.04.38.04.15,0,.29-.03.41-.1s.22-.15.3-.26c.07-.11.11-.21.12-.32.01-.26-.05-.47-.21-.63-.15-.16-.4-.24-.75-.24-.09,0-.18,0-.25.02ZM27.65,32.62c0,.45-.09.83-.27,1.15-.18.32-.43.56-.74.73-.31.16-.64.24-1.01.24-.39,0-.75-.09-1.06-.27-.32-.18-.57-.43-.75-.75-.18-.32-.28-.69-.28-1.11,0-.37.08-.72.24-1.04.16-.32.39-.57.7-.77.3-.19.66-.29,1.08-.29s.76.09,1.08.27c.32.18.56.43.74.75.18.32.26.68.26,1.09ZM25.63,34.37c.14,0,.28-.04.42-.12.14-.08.27-.2.38-.38.12-.19.21-.38.26-.57.05-.19.07-.4.07-.65,0-.63-.15-1.11-.45-1.44-.22-.23-.46-.33-.72-.33-.26,0-.5.12-.71.35-.28.31-.42.75-.42,1.3,0,.28.03.53.08.74.05.21.15.42.29.62.12.17.25.29.39.36.14.07.28.11.42.11ZM19.11,30.54h2.08c.19,0,.35.01.49.03.14.02.27.07.38.14.13.07.22.18.3.31.07.13.11.28.11.43,0,.52-.34.84-1.03.98.19.02.35.04.48.07.13.03.25.09.37.17.27.19.4.46.4.8s-.13.64-.4.86c-.12.09-.26.16-.41.19-.15.03-.34.05-.57.05h-1.86v-.22c.1-.02.15-.14.15-.35,0-.19.01-.53.01-1.02v-1.21c0-.36,0-.61-.02-.73-.01-.12-.05-.2-.11-.24-.06-.04-.18-.06-.36-.08v-.22ZM20.38,30.9v1.36c.24,0,.46-.01.64-.05.18-.03.33-.11.45-.22.12-.11.18-.28.18-.5s-.09-.39-.26-.47c-.17-.08-.41-.13-.72-.13-.06,0-.16,0-.29.01ZM20.76,32.63h-.38v.94c0,.18,0,.31.02.39.02.08.06.15.13.19.07.05.19.07.36.07.14,0,.28-.03.42-.08.14-.06.27-.14.37-.27.1-.12.15-.28.15-.47,0-.21-.04-.37-.12-.49-.08-.11-.2-.19-.35-.23-.15-.04-.35-.06-.6-.06ZM15.83,32.69v.59c0,.35.01.59.03.72.01.13.05.22.12.26.06.05.18.08.35.08v.22h-1.69v-.22c.15-.01.26-.03.32-.06.06-.03.11-.07.13-.14.02-.07.03-.18.04-.33,0-.11,0-.29,0-.52v-1.46c0-.42,0-.68-.03-.79-.01-.11-.05-.18-.11-.22-.06-.03-.18-.06-.35-.07v-.22h1.83c.47,0,.8.1,1,.28.21.19.31.44.31.75,0,.21-.07.41-.2.59-.13.19-.33.32-.59.4l.72,1.32c.08.16.16.29.23.37.07.08.14.14.21.18.07.04.17.06.28.08v.14c-.11,0-.2.01-.27.01-.25,0-.46-.03-.63-.09-.16-.06-.31-.16-.42-.3-.12-.14-.23-.32-.34-.56l-.22-.47c-.08-.18-.15-.3-.21-.38-.06-.07-.12-.12-.19-.14-.07-.02-.17-.03-.31-.04ZM15.83,30.88v1.46c.11.03.24.04.38.04.15,0,.29-.03.41-.09.12-.06.22-.14.3-.24.07-.1.11-.2.12-.31.01-.26-.05-.47-.21-.63-.15-.16-.4-.24-.75-.24-.1,0-.18,0-.24.03ZM13.64,34.58h-1.89v-.22c.17-.01.29-.04.37-.07.08-.03.12-.1.12-.2,0-.06-.01-.14-.04-.24l-.12-.41h-1.42l-.13.35c-.03.1-.05.18-.05.25,0,.13.05.21.14.25.09.04.23.06.4.07v.22h-1.66v-.22c.15,0,.26-.02.35-.05.08-.03.15-.08.21-.15.05-.07.11-.18.16-.32l1.09-3-.06-.1c.23-.07.39-.13.49-.18.1-.05.2-.11.31-.19.05.17.11.37.18.59l.89,2.74c.06.18.11.31.15.39.05.08.11.14.18.18.07.04.18.07.33.08v.22ZM11.96,33.01l-.57-1.68-.59,1.68h1.16ZM8.38,33.54h-.2c-.04.23-.11.39-.21.48-.1.1-.21.15-.33.17-.12.02-.32.03-.58.03s-.43-.03-.51-.09c-.09-.06-.13-.17-.13-.31v-1.13h.43c.18,0,.31.01.4.03.09.02.15.07.19.13.04.07.06.18.06.33h.2v-1.33h-.2c-.01.13-.04.23-.07.29-.03.06-.09.11-.18.14-.09.03-.21.04-.39.04h-.44v-1.42h.5c.25,0,.44.01.57.04.13.02.23.08.3.16.07.09.12.22.15.4h.19l-.02-.96h-2.88v.22c.17.02.28.03.34.06.06.03.1.08.12.17.02.1.03.35.03.73v1.42c0,.34,0,.57-.01.69,0,.15-.02.27-.04.33-.02.07-.07.11-.13.13-.06.02-.17.04-.32.06v.22h3.07c0-.25.03-.6.09-1.04Z"/>
  </g>
  <g>
    <path class="st1" d="M67.71,6.42c.03-1.23-.06-2.46-.63-3.15-.57-.69-1.86-.93-2.43-.93-2.28,0-3.18,1.38-3.27,1.68-.09.24-.63.78-.63,4.5v5.79c0,5.31,1.74,5.94,3.87,5.94.84,0,3.39-.3,3.42-4.53h2.85c.12,6.84-4.71,6.84-6.12,6.84-2.7,0-6.84-.18-6.84-8.58v-6.12c0-6.12,2.7-7.86,6.96-7.86s5.94,2.22,5.67,6.42h-2.85Z"/>
    <path class="st1" d="M73.65,14.19v-7.11c0-4.32,2.22-7.08,6.81-7.08s6.81,2.76,6.81,7.08v7.11c0,6-2.22,8.37-6.81,8.37s-6.81-2.37-6.81-8.37ZM84.45,14.31v-7.32c0-4.53-3.12-4.68-3.99-4.68s-3.99.15-3.99,4.68v7.32c0,4.74,1.38,5.94,3.99,5.94s3.99-1.2,3.99-5.94Z"/>
    <path class="st1" d="M90.62,22.11V.45h2.76v19.26h7.95v2.4h-10.71Z"/>
    <path class="st1" d="M103.49,22.11V.45h2.76v19.26h7.95v2.4h-10.71Z"/>
    <path class="st1" d="M116.37,22.11V.45h11.16v2.4h-8.4v6.96h7.8v2.4h-7.8v7.5h8.58v2.4h-11.34Z"/>
    <path class="st1" d="M140.5,6.24c0-2.55-1.05-3.93-3.84-3.93-.87,0-3.99.15-3.99,4.68v7.32c0,4.74,1.38,5.94,3.99,5.94,1.98,0,3.3-.54,3.87-.96v-6.48h-3.99v-2.4h6.75v10.53c-1.77.96-3.84,1.62-6.63,1.62-4.59,0-6.81-2.37-6.81-8.37v-7.11c0-4.32,2.22-7.08,6.81-7.08s6.9,1.71,6.72,6.24h-2.88Z"/>
    <path class="st1" d="M146.83,22.11V.45h11.16v2.4h-8.4v6.96h7.8v2.4h-7.8v7.5h8.58v2.4h-11.34Z"/>
    <path class="st1" d="M165.82,14.19v-7.11c0-4.32,2.22-7.08,6.81-7.08s6.81,2.76,6.81,7.08v7.11c0,6-2.22,8.37-6.81,8.37s-6.81-2.37-6.81-8.37ZM176.62,14.31v-7.32c0-4.53-3.12-4.68-3.99-4.68s-3.99.15-3.99,4.68v7.32c0,4.74,1.38,5.94,3.99,5.94s3.99-1.2,3.99-5.94Z"/>
    <path class="st1" d="M182.69,22.11V.45h10.74v2.4h-7.98v6.96h7.56v2.4h-7.56v9.9h-2.76Z"/>
    <path class="st1" d="M200.3,22.11V.45h11.16v2.4h-8.4v6.96h7.8v2.4h-7.8v7.5h8.58v2.4h-11.34Z"/>
    <path class="st1" d="M229.24.45v21.66h-3.78l-8.55-18.78h-.06v18.78h-2.46V.45h3.9l8.43,18.54h.06V.45h2.46Z"/>
    <path class="st1" d="M243.23,6.24c0-2.55-1.05-3.93-3.84-3.93-.87,0-3.99.15-3.99,4.68v7.32c0,4.74,1.38,5.94,3.99,5.94,1.98,0,3.3-.54,3.87-.96v-6.48h-3.99v-2.4h6.75v10.53c-1.77.96-3.84,1.62-6.63,1.62-4.59,0-6.81-2.37-6.81-8.37v-7.11c0-4.32,2.22-7.08,6.81-7.08s6.9,1.71,6.72,6.24h-2.88Z"/>
    <path class="st1" d="M252.48,22.11h-2.76V.45h2.76v21.66Z"/>
    <path class="st1" d="M271.02.45v21.66h-3.78l-8.55-18.78h-.06v18.78h-2.46V.45h3.9l8.43,18.54h.06V.45h2.46Z"/>
    <path class="st1" d="M274.58,22.11V.45h11.16v2.4h-8.4v6.96h7.8v2.4h-7.8v7.5h8.58v2.4h-11.34Z"/>
    <path class="st1" d="M288.6,22.11V.45h11.16v2.4h-8.4v6.96h7.8v2.4h-7.8v7.5h8.58v2.4h-11.34Z"/>
    <path class="st1" d="M305.34,12.15v9.96h-2.76V.45h7.47c3.84,0,5.19,2.7,5.19,5.4,0,2.55-1.41,4.5-3.96,4.95v.06c2.49.39,3.39,1.23,3.54,5.58.03.93.33,4.32.75,5.67h-2.88c-.78-1.5-.6-4.32-.84-7.2-.21-2.64-2.34-2.76-3.27-2.76h-3.24ZM305.34,9.75h4.14c1.98,0,2.94-1.71,2.94-3.6,0-1.56-.78-3.3-2.91-3.3h-4.17v6.9Z"/>
    <path class="st1" d="M321.23,22.11h-2.76V.45h2.76v21.66Z"/>
    <path class="st1" d="M339.77.45v21.66h-3.78l-8.55-18.78h-.06v18.78h-2.46V.45h3.9l8.43,18.54h.06V.45h2.46Z"/>
    <path class="st1" d="M353.75,6.24c0-2.55-1.05-3.93-3.84-3.93-.87,0-3.99.15-3.99,4.68v7.32c0,4.74,1.38,5.94,3.99,5.94,1.98,0,3.3-.54,3.87-.96v-6.48h-3.99v-2.4h6.75v10.53c-1.77.96-3.84,1.62-6.63,1.62-4.59,0-6.81-2.37-6.81-8.37v-7.11c0-4.32,2.22-7.08,6.81-7.08s6.9,1.71,6.72,6.24h-2.88Z"/>
    <path class="st1" d="M378.11,19.89c-1.65,2.01-3.48,2.67-6.03,2.67-3.9,0-7.11-2.01-7.11-6.21,0-3.57,2.04-4.89,4.8-6.6-1.26-1.44-2.85-3.45-2.85-5.46,0-3.15,2.64-4.29,5.34-4.29s5.07,1.32,5.07,4.38c0,2.28-1.89,4.29-3.63,5.76l4.23,5.37c.42-1.41.42-2.91.42-6.15h2.46c0,4.65-.48,6.66-1.32,8.1l3.48,4.65h-3.12l-1.74-2.22ZM371.3,11.34c-1.89,1.29-3.51,2.43-3.51,4.95,0,2.34,1.86,3.96,4.44,3.96,1.95,0,3.3-.57,4.41-2.16l-5.34-6.75ZM374.51,4.53c0-1.5-.9-2.43-2.37-2.43-1.38,0-2.4.99-2.4,2.43s1.56,2.76,2.37,3.9c1.02-.9,2.4-2.22,2.4-3.9Z"/>
    <path class="st1" d="M399.41,6.42c.03-1.23-.06-2.46-.63-3.15-.57-.69-1.86-.93-2.43-.93-2.28,0-3.18,1.38-3.27,1.68-.09.24-.63.78-.63,4.5v5.79c0,5.31,1.74,5.94,3.87,5.94.84,0,3.39-.3,3.42-4.53h2.85c.12,6.84-4.71,6.84-6.12,6.84-2.7,0-6.84-.18-6.84-8.58v-6.12c0-6.12,2.7-7.86,6.96-7.86s5.94,2.22,5.67,6.42h-2.85Z"/>
    <path class="st1" d="M405.36,14.19v-7.11c0-4.32,2.22-7.08,6.81-7.08s6.81,2.76,6.81,7.08v7.11c0,6-2.22,8.37-6.81,8.37s-6.81-2.37-6.81-8.37ZM416.15,14.31v-7.32c0-4.53-3.12-4.68-3.99-4.68s-3.99.15-3.99,4.68v7.32c0,4.74,1.38,5.94,3.99,5.94s3.99-1.2,3.99-5.94Z"/>
    <path class="st1" d="M424.92,22.11h-2.58V.45h4.47l5.46,18.18h.06l5.52-18.18h4.56v21.66h-2.76V2.85h-.06l-6.06,19.26h-2.61l-5.94-19.26h-.06v19.26Z"/>
    <path class="st1" d="M446.11,22.11V.45h6.42c2.91,0,6.03,1.08,6.03,6.18s-3.84,5.94-6.06,5.94h-3.63v9.54h-2.76ZM448.87,10.17h3.03c1.14,0,3.84-.3,3.84-3.69s-2.46-3.63-3.06-3.63h-3.81v7.32Z"/>
    <path class="st1" d="M461.29.45h2.76v13.86c0,4.74,1.44,5.94,4.05,5.94s4.05-1.2,4.05-5.94V.45h2.76v13.74c0,6-2.22,8.37-6.81,8.37s-6.81-2.37-6.81-8.37V.45Z"/>
    <path class="st1" d="M491.32.45v2.4h-5.7v19.26h-2.76V2.85h-5.7V.45h14.16Z"/>
    <path class="st1" d="M493.61,22.11V.45h11.16v2.4h-8.4v6.96h7.8v2.4h-7.8v7.5h8.58v2.4h-11.34Z"/>
    <path class="st1" d="M510.36,12.15v9.96h-2.76V.45h7.47c3.84,0,5.19,2.7,5.19,5.4,0,2.55-1.41,4.5-3.96,4.95v.06c2.49.39,3.39,1.23,3.54,5.58.03.93.33,4.32.75,5.67h-2.88c-.78-1.5-.6-4.32-.84-7.2-.21-2.64-2.34-2.76-3.27-2.76h-3.24ZM510.36,9.75h4.14c1.98,0,2.94-1.71,2.94-3.6,0-1.56-.78-3.3-2.91-3.3h-4.17v6.9Z"/>
    <path class="st1" d="M530.54,15.66v.63c0,2.94,1.86,3.87,3.63,3.87,2.19,0,3.87-.93,3.87-3.51,0-4.8-9.72-4.26-9.72-10.77,0-3.84,2.73-5.88,6.36-5.88,3.96,0,6.18,1.92,6,6.33h-2.88c.03-2.37-.72-3.93-3.33-3.93-1.65,0-3.33.84-3.33,3.18,0,4.77,9.72,4.08,9.72,10.95,0,4.56-3.15,6.03-6.72,6.03-6.39.06-6.39-4.83-6.33-6.9h2.73Z"/>
    <path class="st1" d="M553.45,6.42c.03-1.23-.06-2.46-.63-3.15-.57-.69-1.86-.93-2.43-.93-2.28,0-3.18,1.38-3.27,1.68-.09.24-.63.78-.63,4.5v5.79c0,5.31,1.74,5.94,3.87,5.94.84,0,3.39-.3,3.42-4.53h2.85c.12,6.84-4.71,6.84-6.12,6.84-2.7,0-6.84-.18-6.84-8.58v-6.12c0-6.12,2.7-7.86,6.96-7.86s5.94,2.22,5.67,6.42h-2.85Z"/>
    <path class="st1" d="M562.39,22.11h-2.76V.45h2.76v21.66Z"/>
    <path class="st1" d="M566,22.11V.45h11.16v2.4h-8.4v6.96h7.8v2.4h-7.8v7.5h8.58v2.4h-11.34Z"/>
    <path class="st1" d="M594.94.45v21.66h-3.78l-8.55-18.78h-.06v18.78h-2.46V.45h3.9l8.43,18.54h.06V.45h2.46Z"/>
    <path class="st1" d="M608.04,6.42c.03-1.23-.06-2.46-.63-3.15-.57-.69-1.86-.93-2.43-.93-2.28,0-3.18,1.38-3.27,1.68-.09.24-.63.78-.63,4.5v5.79c0,5.31,1.74,5.94,3.87,5.94.84,0,3.39-.3,3.42-4.53h2.85c.12,6.84-4.71,6.84-6.12,6.84-2.7,0-6.84-.18-6.84-8.58v-6.12c0-6.12,2.7-7.86,6.96-7.86s5.94,2.22,5.67,6.42h-2.85Z"/>
    <path class="st1" d="M614.04,22.11V.45h11.16v2.4h-8.4v6.96h7.8v2.4h-7.8v7.5h8.58v2.4h-11.34Z"/>
  </g>
  <rect class="st1" x="46.88" y=".44" width=".5" height="34.66"/>
  <path class="st1" d="M249.06,34.98h-2.37v-.39c.07-.01.12-.03.17-.05.04-.02.08-.06.1-.12.03-.06.04-.16.05-.28.01-.23.04-1.02.07-2.38.04-1.36.06-2.41.07-3.15-.19-.18-.36-.3-.48-.36-.12-.06-.31-.1-.56-.12v-.39h2.17c.33.47.59.83.77,1.07.19.24.53.68,1.04,1.31l2.02,2.5v-3.24c0-.42-.03-.71-.06-.86-.04-.15-.13-.25-.28-.29-.15-.05-.44-.08-.85-.1v-.39h2.85v.39c-.28,0-.47.04-.59.1-.12.06-.19.18-.22.36-.04.18-.05.48-.06.9l-.1,5.59h-.43l-.65-.81-.41-.5c-.2-.25-.39-.49-.58-.72l-2.87-3.53v3.76c0,.41.02.7.07.86.05.16.14.27.29.32.15.05.42.1.82.15v.39ZM241.6,28.42v2.69c.23.04.46.07.67.07.26,0,.51-.06.73-.18.22-.12.4-.27.53-.46.13-.19.21-.38.22-.58.02-.46-.1-.84-.37-1.13-.27-.29-.72-.44-1.34-.44-.17,0-.32.01-.44.04M241.6,31.74v.94c0,.63.02,1.06.04,1.29.03.23.09.38.21.47.11.08.32.13.62.14v.4h-3.03v-.4c.28-.02.47-.06.58-.11.11-.05.19-.14.23-.26.04-.12.06-.32.06-.6,0-.2.01-.51.01-.93v-2.63c0-.73-.01-1.2-.04-1.4-.03-.2-.1-.33-.21-.39-.11-.06-.32-.11-.64-.13v-.4h3.29c.84,0,1.43.17,1.8.52.36.35.54.79.54,1.35,0,.25-.05.5-.16.75-.1.26-.26.49-.47.7-.21.21-.47.36-.79.46l1.28,2.23c.16.29.3.51.42.66.12.15.24.26.37.32.13.07.3.11.5.15v.25c-.2.01-.36.02-.46.02-.46,0-.83-.06-1.13-.17-.29-.11-.55-.29-.76-.53-.21-.24-.41-.57-.62-1l-.4-.85c-.14-.31-.26-.51-.36-.63-.1-.12-.21-.18-.31-.2-.11-.02-.3-.03-.59-.04M235.54,34.62c.25,0,.49-.08.75-.22.25-.14.48-.36.69-.67.22-.34.37-.68.46-1.02.09-.34.13-.72.13-1.16,0-1.13-.27-1.98-.82-2.57-.39-.4-.83-.6-1.3-.59-.47,0-.89.21-1.27.64-.5.56-.75,1.34-.75,2.33,0,.51.05.95.14,1.32.1.38.27.75.52,1.11.22.3.45.52.71.65.26.13.51.19.75.19M239.16,31.48c0,.81-.16,1.49-.49,2.07-.33.58-.77,1.01-1.32,1.31-.55.29-1.15.44-1.8.44-.7,0-1.34-.16-1.91-.48-.57-.32-1.02-.77-1.35-1.35-.33-.58-.49-1.24-.49-2,0-.67.14-1.29.43-1.86.29-.57.71-1.03,1.25-1.38.55-.34,1.2-.52,1.94-.52s1.37.16,1.94.48c.57.32,1.01.77,1.32,1.34.32.57.48,1.22.48,1.95M227.63,31.5h-.67v1.69c0,.32.01.55.04.7.03.15.11.26.24.35.13.08.34.12.64.12.25,0,.5-.05.76-.15.26-.1.48-.26.66-.48.18-.22.27-.5.27-.85,0-.38-.08-.67-.22-.87-.15-.21-.36-.34-.63-.41-.27-.07-.63-.1-1.08-.1M226.96,28.38v2.44c.44,0,.82-.02,1.14-.08.33-.06.6-.19.81-.4.21-.21.32-.51.32-.9s-.15-.69-.46-.85c-.31-.15-.74-.23-1.29-.23-.11,0-.28,0-.52.02M224.68,27.74h3.73c.33,0,.63.02.88.06.26.04.48.12.68.25.23.13.41.32.54.56.12.24.19.5.19.78,0,.92-.62,1.51-1.84,1.76.34.03.62.08.86.13.24.06.46.16.66.3.47.34.71.82.71,1.44s-.24,1.16-.72,1.54c-.22.17-.46.29-.73.34-.27.06-.61.08-1.03.08h-3.34v-.39c.19-.04.28-.25.28-.63.02-.34.02-.95.02-1.82v-2.16c0-.65-.01-1.09-.04-1.3-.03-.22-.09-.36-.2-.42-.11-.07-.32-.11-.64-.14v-.39ZM220.18,28.35v2.61c.2.05.43.08.67.08.26,0,.51-.06.73-.17.23-.11.4-.26.54-.43.13-.18.2-.36.21-.56.03-.46-.1-.84-.37-1.13-.28-.29-.72-.44-1.35-.44-.17,0-.31.02-.44.05M220.18,31.61v1.07c0,.63.02,1.06.05,1.29.03.23.09.39.21.48.11.08.32.14.62.15v.4h-3.03v-.4c.27-.02.47-.06.58-.11.12-.05.19-.14.22-.26.04-.12.06-.32.07-.6,0-.2,0-.52,0-.94v-2.62c0-.75-.02-1.22-.05-1.41-.03-.2-.1-.33-.2-.39-.11-.06-.32-.11-.63-.12v-.39h3.28c.84,0,1.44.17,1.8.51.37.34.55.79.55,1.35,0,.37-.12.73-.36,1.06-.24.33-.6.57-1.07.72l1.29,2.36c.15.29.29.51.41.66.12.15.24.26.38.32.13.07.3.11.5.15v.25c-.2.01-.36.02-.48.02-.45,0-.83-.06-1.12-.17-.3-.11-.55-.29-.76-.53-.21-.24-.42-.58-.62-1l-.4-.84c-.14-.32-.27-.54-.37-.67-.1-.13-.21-.22-.34-.26-.12-.04-.31-.06-.55-.07M214.89,32.18l-1.01-3.01-1.06,3.01h2.08ZM217.9,34.98h-3.39v-.39c.3-.03.53-.07.66-.12.14-.06.21-.17.21-.35,0-.11-.03-.25-.08-.43l-.22-.74h-2.55l-.23.63c-.06.19-.09.33-.09.45,0,.23.09.37.26.44.17.07.41.11.72.13v.39h-2.98v-.39c.27-.01.47-.04.62-.1.15-.05.27-.14.37-.27.1-.13.19-.32.29-.58l1.96-5.37-.11-.17c.41-.13.71-.24.88-.33.18-.09.37-.2.56-.34.09.3.19.66.32,1.06l1.6,4.91c.1.32.19.55.27.7.09.15.19.26.32.33.13.07.33.12.59.15v.39ZM210.16,34.98h-5.51v-.4c.27-.02.46-.06.56-.1.11-.05.19-.12.23-.24.04-.11.06-.31.07-.59.01-.23.02-.64.02-1.24v-2.54c0-.69-.02-1.12-.05-1.31-.04-.16-.11-.26-.22-.31-.11-.05-.31-.08-.61-.11v-.39h5.16l.04,1.72h-.33c-.05-.32-.14-.56-.27-.71-.13-.15-.31-.25-.54-.29-.23-.04-.57-.07-1.03-.07h-.89v2.54h.79c.31,0,.54-.02.69-.08.15-.05.26-.13.32-.25.06-.12.1-.29.12-.53h.35v2.39h-.35c0-.27-.03-.47-.1-.59-.06-.12-.18-.21-.33-.24-.16-.04-.39-.06-.71-.06h-.78v2.03c0,.25.08.44.23.55.16.12.46.17.92.17s.82-.02,1.04-.05c.22-.03.42-.13.6-.31.18-.17.31-.46.38-.87h.35c-.11.8-.16,1.42-.16,1.87M199.65,28.39h-.64v4.7c0,.37.02.64.05.8.03.16.11.27.21.33.11.06.29.09.54.09.66,0,1.22-.13,1.68-.4.46-.27.81-.64,1.04-1.1.23-.47.35-1,.35-1.58,0-.45-.07-.84-.21-1.16-.14-.32-.36-.64-.65-.95-.21-.23-.44-.39-.71-.5-.26-.1-.51-.17-.76-.19-.24-.02-.54-.04-.91-.04M200.03,34.98h-3.22v-.4c.25-.03.44-.06.54-.11.11-.05.18-.12.22-.24.04-.12.06-.31.07-.58.01-.23.02-.64.02-1.24v-2.53c0-.7-.02-1.13-.06-1.32-.04-.16-.11-.26-.21-.31-.11-.05-.3-.09-.57-.11v-.39h3.32c.59,0,1.08.03,1.46.08.38.05.76.19,1.12.4.45.27.83.67,1.15,1.21.31.53.47,1.15.47,1.87,0,.92-.25,1.71-.76,2.37-.31.39-.67.68-1.08.88-.42.19-.81.31-1.18.35-.37.04-.79.07-1.28.08M195.78,31.15h-2.74l-.2,1.18h2.74l.2-1.18ZM93.56,29.94c.04-.84-.38-1.56-1.71-1.56-.18,0-.3,0-.44.04v2.68c.19.04.47.07.67.07.82,0,1.44-.65,1.47-1.23M96.03,34.87v.25c-.15,0-.31.02-.47.02-1.36,0-1.92-.47-2.49-1.69l-.4-.85c-.43-.91-.57-.85-1.26-.86v.94c0,1.66,0,1.88.88,1.9v.4h-3.01v-.4c.78-.06.86-.18.87-.96.01-.3.01-.63.01-.93v-2.62c0-.87-.01-1.17-.04-1.41-.05-.4-.25-.47-.84-.52v-.39h3.27c1.78,0,2.34.86,2.34,1.86,0,.69-.43,1.6-1.42,1.91l1.28,2.22c.46.85.71,1.04,1.29,1.13M176.88,31.77h-2.91v.39c.8.08.93.1.96,1.02.01.32-.02.49-.15.69-.04.04-.45.6-1.25.6-1.41,0-2.23-1.42-2.23-3.08,0-2.08,1.05-3.14,2.31-3.14.73,0,1.19.3,1.43.54.54.54.76,1.04.91,1.47l.29-.05-.06-2.26-.38.43c-.59-.36-1.3-.82-2.53-.82-1.96,0-3.52,1.5-3.52,3.81,0,1.89,1.19,3.77,3.67,3.77,1.42,0,2.22-.5,2.78-.85v-.54c.02-1.37.02-1.56.67-1.6v-.39ZM86.53,34.32c-.96,0-1.16-.26-1.16-.73v-2.03h.78c.89,0,1.14.08,1.14.88h.35v-2.38h-.35c-.07.64-.2.85-1.13.85h-.79v-2.54h.89c1.23,0,1.67.09,1.83,1.07h.33l-.04-1.72h-5.14v.39c.52.05.75.08.82.42.05.22.06,1.02.06,1.31v2.55c0,.19,0,1.06-.02,1.24-.02.79-.11.86-.86.93v.4h5.5c0-.52.09-1.38.15-1.87h-.35c-.25,1.29-.97,1.23-2.01,1.23M115.94,28.14c.5.03.8.04.8.39,0,.16-.1.38-.29.74l-1.02,1.8-1.1-1.81c-.19-.31-.32-.53-.32-.73,0-.35.34-.37,1.09-.39v-.4h-3.76v.4c.69.04.71.06,1.23.84l1.92,2.97v1.27c0,.79,0,.97-.17,1.13-.15.14-.36.16-.92.23v.39h3.56v-.39c-1.07-.06-1.08-.16-1.08-1.47v-1.5l1.13-1.88c.83-1.35,1.04-1.56,1.77-1.59v-.4h-2.82v.4ZM80.71,28.13c.45,0,.96.03.96.55,0,.18-.12.51-.22.77l-1.47,3.79-1.26-3.67c-.19-.6-.25-.78-.25-.98,0-.42.38-.44.96-.46v-.39h-3.43v.39c.72.11.79.28,1.28,1.65l1.97,5.33h.39l2.2-5.25c.59-1.43.69-1.62,1.38-1.73v-.39h-2.53v.39ZM61.54,28.13c.64.05.98.07,1.02.73.01.23.01,1.09.01,1.36,0,.84-.01,2.11-.22,2.78-.25.85-.81,1.39-1.84,1.39-.32,0-.95-.07-1.32-.61-.46-.68-.48-1.43-.48-2.31v-1.7c0-1.53,0-1.56.97-1.64v-.39h-3.25v.39c.54.03.77.12.83.57.02.18.02.53.03,1.31v1.63c0,1.17,0,2.25,1.08,2.98.68.45,1.49.51,1.89.51.5,0,2.39-.1,2.88-2.04.12-.52.15-1.06.17-1.62,0-.31.09-2.31.1-2.49.04-.72.18-.87.86-.86v-.39h-2.75v.39ZM104.48,27.74l-.06,2.02h.38c.06-1.29.6-1.26,1.42-1.26h.9v5.33c0,.57-.19.82-.85.83v.31h2.98v-.31c-.66,0-.85-.26-.85-.83v-5.33h.9c.82,0,1.36-.03,1.42,1.26h.38l-.06-2.02h-6.56ZM99.83,31.03c-.3-.17-.63-.29-1.04-.42-.81-.27-1.66-.55-1.66-1.41,0-.57.45-.94,1.22-.94.57,0,1.06.21,1.41.66.29.38.38.6.5,1.07l.36-.07-.23-2.15-.44.32c-.61-.39-1.18-.49-1.66-.49-1.24,0-2.3.76-2.3,2.11s1.11,1.86,1.71,2.08c.29.11.59.2.88.32.35.14,1.13.47,1.13,1.29s-.68,1.1-1.44,1.1c-1.08,0-1.75-.63-2.15-1.81l-.37.04.1,1.42.6.44c.29.18.89.57,1.87.57,1.52,0,2.54-1.03,2.54-2.28,0-.87-.47-1.5-1.04-1.84M69.33,28.13c1.15.04,1.18.1,1.19,1.25v3.24l-2.01-2.51c-1.06-1.32-1.2-1.51-1.8-2.37h-2.17v.39c.48.04.64.11,1.04.48,0,.75-.04,5.04-.14,5.52-.08.41-.31.42-.9.45v.39h2.94v-.39c-1.1-.11-1.19-.15-1.19-1.32v-3.75l2.85,3.53c.33.4.65.81.98,1.22l.64.81h.43l.1-5.58c0-1.18.08-1.34.87-1.35v-.39h-2.84v.39ZM101.04,28.13c.85.12.85.16.86,1.67v3.85c-.01.76-.15.84-.86.93v.39h3v-.39c-.56-.04-.77-.14-.82-.58-.02-.21-.03-1.02-.03-1.28v-2.92c0-1.54,0-1.59.85-1.67v-.39h-3v.39ZM72.64,28.13c.85.12.85.16.86,1.67v3.85c-.01.76-.15.84-.86.93v.39h3v-.39c-.56-.04-.77-.14-.82-.58-.02-.21-.03-1.02-.03-1.28v-2.92c0-1.54,0-1.59.85-1.67v-.39h-3v.39ZM129.27,27.74v.39c.52.05.75.08.82.42.05.23.06,1.02.06,1.31v2.54c0,.19-.01,1.07-.02,1.25-.02.79-.11.86-.86.93v.4h2.99v-.4c-.75-.07-.84-.14-.86-.93v-2.07h.8c.81,0,1.24.08,1.29.88h.35v-2.38h-.35c-.04.78-.25.85-1.13.85h-.95v-2.5c.25-.03.4-.04.86-.04,1.41,0,1.87,0,2.05,1.12h.36l-.11-1.77h-5.3ZM127.64,31.14c-.03-.93-.29-1.73-.82-2.3-.23-.25-.69-.61-1.29-.59-.6,0-1.05.38-1.27.63-.51.58-.75,1.39-.75,2.32s.12,1.66.66,2.42c.47.66,1.05.85,1.45.85.41-.01.99-.21,1.43-.89.51-.78.62-1.5.59-2.44M129.23,31.34c0,2.5-1.7,3.81-3.61,3.81-2.1,0-3.74-1.51-3.74-3.81,0-1.97,1.32-3.75,3.64-3.74,2.19.01,3.71,1.57,3.71,3.75M181.21,32.17l-1.01-2.99-1.06,2.99h2.07ZM188.8,27.74h2.84v.39c-.79,0-.86.17-.87,1.35l-.1,5.57h-.43l-.64-.81c-.33-.41-.65-.82-.98-1.22l-2.85-3.52v3.75c0,1.17.08,1.21,1.19,1.32v.39h-6.11v-.39c.49-.03.87-.07.87-.47,0-.14-.04-.3-.08-.43l-.22-.74h-2.55l-.22.62c-.05.15-.09.3-.09.45,0,.51.54.54.98.56v.39h-2.98v-.39c.76-.03,1-.18,1.28-.94l1.95-5.36-.11-.17c.84-.28,1.07-.4,1.43-.67.14.49.16.55.33,1.06l1.6,4.91c.28.85.42,1.07,1.13,1.16.48-.03.67-.07.75-.44.1-.48.13-4.77.14-5.52-.4-.37-.56-.44-1.04-.48v-.39h2.17c.6.86.73,1.05,1.8,2.37l2.02,2.5v-3.23c-.01-1.14-.04-1.21-1.19-1.25v-.39ZM142.65,33.24l-2.25-5.5h-2.27v.39c.65,0,.79.06.79.78,0,.26,0,.6-.01.84l-.1,3.04c0,.4-.04,1-.06,1.2-.04.49-.26.57-.85.6v.39h2.51v-.39c-.77-.06-.85-.19-.85-.9l.05-4.26,2.32,5.64h.63l2.53-5.57v3.64c-.01,1.34-.01,1.38-.92,1.44v.39h3.16v-.39c-.58-.05-.78-.15-.82-.69-.03-.37-.04-.98-.04-1.47v-2.98c0-1.12,0-1.22.86-1.27v-.43h-2.2l-2.47,5.5ZM148.03,28.13c.85.12.85.16.86,1.67v3.85c0,.76-.15.84-.86.93v.39h3v-.39c-.56-.04-.77-.14-.82-.58-.02-.21-.03-1.02-.03-1.28v-2.92c0-1.54,0-1.59.85-1.67v-.39h-3v.39ZM166.55,28.13c.85.12.85.16.86,1.67v3.85c0,.76-.15.84-.86.93v.39h3v-.39c-.56-.04-.77-.14-.81-.58-.02-.22-.03-1.02-.03-1.28v-2.91c0-1.54,0-1.58.85-1.67v-.39h-3v.39ZM162.82,28.13c.99.09.99.15,1.01,1.47v1.21c-.62.03-1.1.05-1.71.05s-1.04-.02-1.66-.05v-1c0-.43,0-.96.06-1.2.07-.4.3-.42.9-.48v-.39h-3.09v.39c.56.05.77.11.81.54.03.22.03.7.03,1.17v3.03c0,.25,0,.51,0,.76,0,.7-.01.87-.83.94v.39h3.09v-.39c-.93-.1-.95-.1-.96-1.61v-1.32c.62-.03,1.11-.05,1.73-.05s1.07.03,1.64.05v1.32c0,.52,0,.8-.02,1-.06.5-.26.52-.99.6v.39h3.13v-.39c-.53-.05-.75-.12-.8-.5-.03-.21-.04-1.12-.04-1.41v-3.05c0-1.37,0-1.39.84-1.49v-.39h-3.13v.39ZM157.36,33.03l.43.32c-.32.52-1.09,1.8-3.08,1.8-2.18,0-3.58-1.61-3.58-3.71,0-1.95,1.19-3.88,3.63-3.88,1.28,0,1.96.54,2.38.87l.49-.45.04,2.19-.32.06c-.12-.42-.31-.76-.78-1.27-.22-.23-.76-.7-1.52-.7-1.3,0-2.33,1.06-2.33,2.93,0,1.59.85,3.08,2.52,3.08,1.26,0,1.73-.71,2.11-1.24"/>
</svg>